<svg width="13" height="12" viewBox="0 0 13 12" fill="none" xmlns="http://www.w3.org/2000/svg">
<g clip-path="url(#clip0_110_2048)">
<path d="M7.5983 12.0002H4.93164V4.00024H7.5983V5.33357C7.87903 4.97642 8.23532 4.68582 8.64161 4.48261C9.04791 4.27941 9.49414 4.16863 9.9483 4.15824C10.7426 4.16265 11.5027 4.48185 12.0619 5.04586C12.6212 5.60986 12.9339 6.37263 12.9316 7.1669V12.0002H10.265V7.50024C10.2134 7.13995 10.0334 6.81042 9.75816 6.57229C9.48292 6.33416 9.13092 6.20346 8.76697 6.20424C8.60407 6.20939 8.44389 6.24739 8.29605 6.31597C8.1482 6.38454 8.01574 6.48228 7.90659 6.60332C7.79745 6.72435 7.71388 6.86619 7.66091 7.02031C7.60793 7.17444 7.58664 7.33768 7.5983 7.50024V12.0002ZM3.5983 12.0002H0.931641V4.00024H3.5983V12.0002ZM2.26497 2.66691C1.91135 2.66691 1.57221 2.52643 1.32216 2.27638C1.07212 2.02634 0.931641 1.6872 0.931641 1.33358C0.931641 0.979954 1.07212 0.640816 1.32216 0.390768C1.57221 0.14072 1.91135 0.000244141 2.26497 0.000244141C2.61859 0.000244141 2.95773 0.14072 3.20778 0.390768C3.45783 0.640816 3.5983 0.979954 3.5983 1.33358C3.5983 1.6872 3.45783 2.02634 3.20778 2.27638C2.95773 2.52643 2.61859 2.66691 2.26497 2.66691Z" fill="white"/>
</g>
<defs>
<clipPath id="clip0_110_2048">
<rect width="12" height="12" fill="white" transform="translate(0.931641 0.000244141)"/>
</clipPath>
</defs>
</svg>
