<svg width="180" height="44" viewBox="0 0 180 44" fill="none" xmlns="http://www.w3.org/2000/svg">
<path d="M55.2224 13.6098C55.3938 13.8732 55.6076 14.1062 55.8551 14.2995C56.1112 14.4959 56.4477 14.7325 56.8595 15.0144C57.2467 15.2557 57.6205 15.5179 57.9794 15.7999C58.2647 16.0279 58.5063 16.3059 58.6925 16.6205C58.891 16.957 58.9919 17.3424 58.9837 17.7332C58.9912 18.1965 58.8543 18.6506 58.592 19.0322C58.318 19.4213 57.9428 19.7278 57.5073 19.9183C57.022 20.1331 56.496 20.2396 55.9656 20.2304C55.5216 20.2283 55.0797 20.1708 54.6499 20.0592C54.3181 19.9964 54.0033 19.8644 53.7258 19.6716C53.6835 19.6444 53.6475 19.6083 53.6204 19.5658C53.5917 19.5173 53.5793 19.4608 53.5852 19.4047L53.54 17.1743C53.54 17.1391 53.5651 17.119 53.6103 17.1139C53.6555 17.1089 53.6857 17.1139 53.6957 17.1592C53.9769 17.7332 54.223 18.1964 54.4289 18.5488C54.64 18.9057 54.91 19.2241 55.2274 19.4903C55.5322 19.7561 55.9232 19.9011 56.3272 19.8981C56.6613 19.9112 56.989 19.804 57.2512 19.596C57.3807 19.4645 57.4801 19.3064 57.5426 19.1325C57.605 18.9586 57.629 18.7732 57.6128 18.5891C57.6218 18.2119 57.528 17.8394 57.3416 17.5117C57.1695 17.2106 56.945 16.9429 56.6787 16.7212C56.4176 16.5098 56.056 16.253 55.599 15.9509C55.237 15.7227 54.8882 15.4739 54.5545 15.2058C54.3037 14.9963 54.0898 14.7462 53.9217 14.4657C53.7413 14.1614 53.6491 13.8127 53.6555 13.4587C53.6417 13.0028 53.7934 12.5573 54.0824 12.2051C54.3724 11.8575 54.7506 11.5948 55.1772 11.4448C55.6317 11.2828 56.1109 11.201 56.5933 11.2032C56.9301 11.2032 57.2663 11.2335 57.5977 11.2938C57.8742 11.3367 58.1452 11.4093 58.4062 11.5103C58.4738 11.5328 58.5331 11.5749 58.577 11.6311C58.6048 11.6801 58.6187 11.7358 58.6171 11.7922V13.8514C58.6171 13.8816 58.6171 13.9018 58.5468 13.9169C58.4765 13.932 58.4715 13.9169 58.4665 13.9169L58.351 13.65C58.1494 13.1109 57.8739 12.6025 57.5324 12.1396C57.3815 11.9377 57.1836 11.7757 56.9561 11.6678C56.7286 11.5599 56.4782 11.5093 56.2267 11.5204C55.8906 11.506 55.5617 11.6213 55.3077 11.8426C55.1843 11.9646 55.0885 12.1118 55.027 12.2743C54.9654 12.4368 54.9396 12.6107 54.9512 12.7841C54.9618 13.0795 55.0558 13.3658 55.2224 13.6098Z" fill="white"/>
<path d="M67.3802 11.8986C67.2659 11.7555 67.1194 11.6416 66.9526 11.5663C66.7858 11.491 66.6036 11.4565 66.421 11.4656C66.421 11.4656 66.3959 11.4354 66.3959 11.38C66.3959 11.3246 66.3959 11.2944 66.421 11.2944H67.0939C67.4505 11.2944 67.7317 11.3246 67.9476 11.3246C68.1636 11.3246 68.3795 11.3246 68.716 11.2944H69.3638C69.3638 11.2944 69.3889 11.3246 69.3889 11.38C69.3889 11.4354 69.3889 11.4656 69.3638 11.4656C69.1968 11.4609 69.0313 11.498 68.8822 11.5736C68.7331 11.6492 68.6052 11.7609 68.5101 11.8986C68.2844 12.2539 68.1755 12.6712 68.1987 13.0918V16.9937C68.2112 17.5961 68.062 18.1908 67.7668 18.7156C67.48 19.2108 67.0537 19.6101 66.5415 19.8635C65.9719 20.1384 65.3456 20.2747 64.7136 20.2613C64.0806 20.2734 63.4534 20.139 62.8806 19.8686C62.3642 19.6235 61.9299 19.2335 61.6302 18.7458C61.3179 18.2122 61.1597 17.6022 61.1732 16.9837V12.4524C61.1827 12.2432 61.1572 12.0339 61.0978 11.8331C61.0739 11.7698 61.0363 11.7126 60.9877 11.6656C60.939 11.6186 60.8806 11.5829 60.8166 11.5613C60.6096 11.5013 60.3941 11.4758 60.1788 11.4858C60.1537 11.4858 60.1387 11.4555 60.1387 11.4002C60.1387 11.3448 60.1387 11.3146 60.1788 11.3146H60.9221C61.354 11.3146 61.6904 11.3448 61.9264 11.3448C62.1625 11.3448 62.5592 11.3448 62.9861 11.3146H63.7042C63.7293 11.3146 63.7444 11.3448 63.7444 11.4002C63.7444 11.4555 63.7444 11.4858 63.7042 11.4858C63.4881 11.4729 63.2715 11.5019 63.0664 11.5713C63.0024 11.5972 62.9443 11.6361 62.896 11.6854C62.8476 11.7348 62.8099 11.7937 62.7852 11.8583C62.7259 12.0608 62.7004 12.2718 62.7099 12.4826V16.5104C62.6396 17.3841 62.872 18.2554 63.3677 18.9774C63.5944 19.2461 63.8802 19.4582 64.2027 19.5971C64.5251 19.7361 64.8754 19.798 65.2258 19.7779C65.5625 19.7961 65.8992 19.7422 66.2135 19.6198C66.5278 19.4974 66.8125 19.3093 67.0487 19.068C67.5158 18.5052 67.7511 17.7849 67.7066 17.0541V13.0918C67.7362 12.6685 67.621 12.2476 67.3802 11.8986Z" fill="white"/>
<path d="M79.7156 11.3791C79.7156 11.4345 79.7156 11.4647 79.6854 11.4647C79.5134 11.4568 79.3421 11.4934 79.1882 11.571C79.0343 11.6486 78.9029 11.7646 78.8066 11.9078C78.5738 12.2568 78.4594 12.6716 78.4802 13.091V20.2554C78.4802 20.2554 78.4802 20.3007 78.4199 20.3107C78.4064 20.3192 78.3907 20.3237 78.3747 20.3237C78.3588 20.3237 78.3431 20.3192 78.3295 20.3107L71.766 12.8241V18.2817C71.7424 18.6969 71.8496 19.1091 72.0723 19.4599C72.1669 19.5985 72.2946 19.7111 72.4437 19.7876C72.5928 19.8641 72.7586 19.902 72.926 19.8979C72.926 19.8979 72.9562 19.9231 72.9562 19.9784C72.9562 20.0338 72.9562 20.064 72.926 20.064C72.6649 20.064 72.464 20.064 72.3234 20.064H71.5701H70.7014C70.5407 20.064 70.3147 20.064 70.0134 20.064C69.9883 20.064 69.9732 20.0338 69.9732 19.9784C69.9732 19.9231 69.9732 19.8979 70.0134 19.8979C70.1986 19.906 70.3831 19.8706 70.5522 19.7946C70.7214 19.7185 70.8705 19.6039 70.9876 19.4599C71.2431 19.1225 71.3696 18.7046 71.3442 18.2817V12.3458C71.1161 12.0774 70.8505 11.8434 70.5557 11.651C70.35 11.5303 70.1162 11.466 69.8778 11.4647C69.8778 11.4647 69.8477 11.4345 69.8477 11.3791C69.8477 11.3238 69.8477 11.2936 69.8778 11.2936H70.4653C70.5859 11.2936 70.7616 11.2936 70.9977 11.2936H72.0573C72.1878 11.2936 72.3485 11.2936 72.5595 11.2936C72.6212 11.2903 72.682 11.31 72.7302 11.3489L72.926 11.5906C73.0817 11.8071 73.1922 11.9481 73.2575 12.0236L78.1036 17.6222V13.091C78.1268 12.6704 78.0179 12.253 77.7922 11.8977C77.697 11.7601 77.5691 11.6484 77.4201 11.5728C77.271 11.4972 77.1055 11.46 76.9385 11.4647C76.9385 11.4647 76.9134 11.4345 76.9134 11.3791C76.9134 11.3238 76.9134 11.2936 76.9385 11.2936H77.5411C77.8424 11.2936 78.0935 11.3238 78.2994 11.3238C78.5053 11.3238 78.7463 11.3238 79.0828 11.2936H79.7105C79.7105 11.2936 79.7156 11.3238 79.7156 11.3791Z" fill="white"/>
<path d="M82.5413 13.6099C82.7145 13.8734 82.93 14.1065 83.179 14.2996C83.4301 14.496 83.7716 14.7326 84.1834 15.0146C84.5706 15.2559 84.9444 15.518 85.3033 15.8C85.603 16.0243 85.8584 16.3026 86.0565 16.6206C86.2568 16.9566 86.3594 17.342 86.3528 17.7333C86.3603 18.1966 86.2234 18.6507 85.9611 19.0323C85.6871 19.4214 85.3119 19.7279 84.8764 19.9184C84.3894 20.1331 83.8617 20.2396 83.3297 20.2305C82.8857 20.2284 82.4438 20.1709 82.014 20.0593C81.6823 19.9966 81.3674 19.8645 81.09 19.6717C81.0498 19.6419 81.0142 19.6063 80.9845 19.5659C80.9558 19.5174 80.9435 19.4609 80.9494 19.4048L80.9092 17.1745C80.9092 17.1392 80.9092 17.1191 80.9795 17.114C81.0498 17.109 81.0498 17.114 81.0598 17.1593C81.3411 17.7333 81.5871 18.1965 81.798 18.5489C82.0057 18.9067 82.2743 19.2254 82.5915 19.4904C82.8967 19.7554 83.2875 19.9003 83.6913 19.8982C84.0254 19.9113 84.3531 19.8042 84.6153 19.5961C84.7454 19.4649 84.8456 19.3069 84.9089 19.133C84.9722 18.9592 84.9971 18.7736 84.9819 18.5892C84.9891 18.2116 84.8936 17.8391 84.7057 17.5118C84.5391 17.1967 84.3161 16.9151 84.0478 16.681C83.7867 16.4696 83.4251 16.2128 82.9681 15.9107C82.6068 15.6839 82.2596 15.4351 81.9286 15.1656C81.6749 14.9577 81.4591 14.7073 81.2908 14.4255C81.1126 14.1203 81.0206 13.7722 81.0247 13.4186C81.0108 12.9626 81.1625 12.5172 81.4515 12.1649C81.7395 11.8127 82.1155 11.5434 82.5413 11.3845C82.9941 11.2226 83.4716 11.1408 83.9524 11.1429C84.2892 11.1429 84.6253 11.1732 84.9568 11.2335C85.2347 11.2771 85.5073 11.3497 85.7703 11.45C85.8364 11.4726 85.8942 11.5147 85.936 11.5708C85.9662 11.6189 85.9802 11.6753 85.9762 11.7319V13.7911C85.9762 13.8213 85.9762 13.8415 85.9109 13.8566C85.8456 13.8717 85.8356 13.8566 85.8255 13.8566L85.71 13.5897C85.5104 13.0497 85.2347 12.5411 84.8915 12.0793C84.7405 11.8774 84.5427 11.7154 84.3152 11.6075C84.0876 11.4996 83.8373 11.449 83.5858 11.46C83.2498 11.4467 82.9213 11.5619 82.6668 11.7823C82.5423 11.9002 82.4444 12.0434 82.3794 12.2022C82.3145 12.3611 82.2841 12.532 82.2902 12.7036C82.2789 13.0244 82.3666 13.3409 82.5413 13.6099Z" fill="white"/>
<path d="M94.0609 17.8043C94.0855 17.7972 94.1116 17.7972 94.1362 17.8043C94.1362 17.8043 94.1714 17.8043 94.1714 17.8345C94.0833 18.5023 94.0363 19.1749 94.0308 19.8484C94.0377 19.9053 94.0234 19.9626 93.9906 20.0095C93.9681 20.0292 93.9417 20.0439 93.9131 20.0525C93.8846 20.0612 93.8545 20.0637 93.8249 20.0599H87.638C87.6078 20.0599 87.5928 20.0297 87.5928 19.9743C87.5928 19.9189 87.5928 19.8937 87.638 19.8937C87.8562 19.9024 88.0745 19.8786 88.2858 19.8232C88.3499 19.8014 88.4082 19.7651 88.4561 19.717C88.504 19.669 88.5402 19.6106 88.562 19.5463C88.6166 19.343 88.6403 19.1325 88.6323 18.922V12.4323C88.6403 12.2235 88.6166 12.0147 88.562 11.813C88.539 11.7491 88.5017 11.6914 88.453 11.6442C88.4042 11.5971 88.3453 11.5618 88.2808 11.5411C88.0718 11.482 87.8549 11.4565 87.638 11.4656C87.6078 11.4656 87.5928 11.4354 87.5928 11.38C87.5928 11.3246 87.5928 11.2944 87.638 11.2944H93.5889C93.6843 11.2944 93.7295 11.3397 93.7295 11.4203L93.7596 13.2882C93.7596 13.2882 93.7345 13.3234 93.6793 13.3285C93.624 13.3335 93.5989 13.3285 93.5889 13.3033C93.4828 12.8261 93.217 12.3996 92.8356 12.095C92.4228 11.8165 91.9315 11.6788 91.4345 11.7022H91.0177C90.7964 11.6832 90.5761 11.7478 90.4 11.8835C90.3303 11.9589 90.277 12.0479 90.2433 12.1449C90.2096 12.242 90.1962 12.3449 90.2041 12.4474V15.3071H91.3642C91.7971 15.3344 92.2288 15.2384 92.6096 15.0302C92.7454 14.9499 92.8573 14.8348 92.9341 14.6968C93.0109 14.5588 93.0497 14.4028 93.0465 14.2448C93.0465 14.2146 93.0716 14.1995 93.1218 14.1995C93.1721 14.1995 93.1972 14.2146 93.1972 14.2448V15.5035V16.1781C93.1972 16.4953 93.2273 16.747 93.2273 16.9384C93.2273 16.9384 93.1972 16.9635 93.1419 16.9635C93.0867 16.9635 93.0566 16.9635 93.0566 16.9384C93.0641 16.7629 93.0282 16.5882 92.952 16.4301C92.8757 16.2719 92.7615 16.1352 92.6197 16.0321C92.234 15.7922 91.7811 15.6844 91.329 15.725H90.1841V18.8969C90.1667 19.1101 90.2216 19.3229 90.3397 19.501C90.4015 19.5719 90.4794 19.6267 90.5668 19.6609C90.6542 19.6951 90.7486 19.7076 90.8419 19.6974H91.3039C91.913 19.7242 92.5163 19.5682 93.0365 19.2493C93.5057 18.9081 93.8471 18.4187 94.0057 17.8597C94.0057 17.8597 94.0207 17.8043 94.0609 17.8043Z" fill="white"/>
<path d="M95.5033 13.7909C95.5033 13.8211 95.4632 13.8312 95.418 13.8261C95.3728 13.8211 95.3477 13.8261 95.3477 13.7808C95.3878 13.4032 95.428 12.9199 95.4732 12.3258C95.5184 11.7317 95.5435 11.2886 95.5435 10.9866C95.5435 10.9412 95.5686 10.9161 95.6239 10.9161C95.6791 10.9161 95.6992 10.9161 95.6992 10.9866C95.6992 11.193 95.9653 11.2937 96.4977 11.2937C97.3012 11.3239 98.2352 11.339 99.3099 11.339C99.8573 11.339 100.445 11.339 101.058 11.3088H102.012C102.271 11.3201 102.532 11.2964 102.785 11.2383C102.857 11.2243 102.925 11.1914 102.981 11.1427C103.036 11.0941 103.078 11.0315 103.101 10.9614C103.101 10.9211 103.142 10.906 103.192 10.906C103.242 10.906 103.267 10.906 103.267 10.9614C103.242 11.2383 103.212 11.6914 103.177 12.3057C103.142 12.9199 103.132 13.4183 103.132 13.8161C103.132 13.8161 103.106 13.8564 103.061 13.8564C103.016 13.8564 102.986 13.8564 102.976 13.8161C102.891 13.2065 102.617 12.6392 102.192 12.1949C102.004 12.0154 101.781 11.8749 101.538 11.7816C101.295 11.6883 101.036 11.644 100.776 11.6511C100.679 11.639 100.581 11.6485 100.488 11.6789C100.395 11.7094 100.31 11.7601 100.239 11.8274C100.131 12.0329 100.085 12.2658 100.108 12.497V18.9263C100.096 19.1409 100.124 19.3559 100.189 19.5607C100.22 19.6257 100.265 19.6831 100.32 19.7292C100.376 19.7752 100.441 19.8087 100.51 19.8275C100.759 19.8831 101.014 19.9068 101.268 19.898C101.299 19.898 101.309 19.9232 101.309 19.9786C101.309 20.034 101.309 20.0642 101.268 20.0642C100.934 20.0642 100.667 20.0642 100.47 20.0642H99.3099H98.175C97.9791 20.0642 97.7079 20.0642 97.3664 20.0642C97.3363 20.0642 97.3212 20.034 97.3212 19.9786C97.3212 19.9232 97.3212 19.898 97.3664 19.898C97.6178 19.9056 97.8691 19.8819 98.1147 19.8275C98.187 19.809 98.2543 19.7745 98.3116 19.7266C98.3689 19.6787 98.4149 19.6186 98.4461 19.5506C98.5215 19.3516 98.554 19.1388 98.5416 18.9263V12.4315C98.5615 12.2091 98.5179 11.9856 98.416 11.7871C98.3493 11.7244 98.2699 11.6767 98.1833 11.6471C98.0967 11.6176 98.0049 11.607 97.9138 11.6159C96.7923 11.6159 95.9888 12.3409 95.5033 13.7909Z" fill="white"/>
<path d="M109.752 13.6098C109.926 13.8734 110.141 14.1065 110.39 14.2996C110.641 14.4959 110.983 14.7326 111.394 15.0145C111.782 15.2558 112.156 15.518 112.514 15.7999C112.8 16.0279 113.041 16.306 113.227 16.6206C113.428 16.9565 113.53 17.3419 113.524 17.7333C113.531 18.1966 113.394 18.6507 113.132 19.0322C112.858 19.4214 112.483 19.7278 112.047 19.9183C111.56 20.1331 111.033 20.2396 110.501 20.2305C110.057 20.2284 109.615 20.1709 109.185 20.0593C108.854 19.9954 108.539 19.8634 108.261 19.6716C108.221 19.6418 108.185 19.6062 108.155 19.5659C108.129 19.5165 108.117 19.4607 108.12 19.4048L108.08 17.1744C108.08 17.1392 108.08 17.119 108.15 17.114C108.221 17.109 108.226 17.114 108.231 17.1593C108.512 17.7333 108.758 18.1965 108.969 18.5489C109.18 18.9058 109.45 19.2241 109.767 19.4904C110.071 19.7554 110.46 19.9004 110.862 19.8982C111.196 19.9122 111.524 19.8049 111.786 19.5961C111.917 19.4657 112.018 19.3078 112.082 19.1337C112.145 18.9597 112.169 18.7737 112.153 18.5892C112.163 18.2111 112.068 17.8378 111.877 17.5117C111.705 17.2107 111.48 16.943 111.214 16.7213C110.953 16.5098 110.591 16.2531 110.134 15.951C109.773 15.7241 109.425 15.4753 109.095 15.2058C108.842 14.9966 108.627 14.7465 108.457 14.4657C108.278 14.1605 108.186 13.8124 108.191 13.4588C108.177 13.0029 108.328 12.5574 108.617 12.2051C108.911 11.8588 109.29 11.5965 109.717 11.4449C110.177 11.2583 110.667 11.1559 111.163 11.1428C111.5 11.1429 111.836 11.1732 112.168 11.2334C112.446 11.2771 112.718 11.3497 112.981 11.4499C113.048 11.471 113.107 11.5134 113.147 11.5708C113.179 11.6182 113.195 11.6747 113.192 11.7319V13.7911C113.192 13.8213 113.167 13.8414 113.122 13.8565C113.077 13.8716 113.047 13.8565 113.037 13.8565L112.926 13.5897C112.723 13.0515 112.447 12.5434 112.108 12.0793C111.956 11.8773 111.757 11.7153 111.529 11.6074C111.3 11.4996 111.049 11.449 110.797 11.46C110.462 11.4454 110.135 11.5608 109.883 11.7822C109.758 11.9034 109.661 12.0504 109.598 12.213C109.536 12.3756 109.51 12.5499 109.521 12.7237C109.511 13.0353 109.591 13.3433 109.752 13.6098Z" fill="white"/>
<path d="M117.072 19.6217C116.407 19.2246 115.865 18.6514 115.505 17.9653C115.136 17.2641 114.946 16.4823 114.953 15.6896C114.929 14.8054 115.186 13.9365 115.686 13.2075C116.158 12.5317 116.804 11.996 117.554 11.6568C118.285 11.3223 119.08 11.1506 119.884 11.1533C120.703 11.134 121.511 11.3469 122.214 11.7675C122.868 12.1657 123.401 12.7349 123.756 13.4139C124.114 14.0827 124.3 14.8301 124.298 15.5889C124.304 16.418 124.07 17.231 123.625 17.93C123.182 18.6386 122.562 19.2198 121.827 19.6167C121.083 20.0337 120.245 20.2537 119.392 20.2561C118.575 20.2637 117.772 20.0441 117.072 19.6217ZM121.26 19.4254C121.698 19.0809 122.029 18.618 122.214 18.0912C122.465 17.4223 122.584 16.7111 122.566 15.9967C122.588 15.2197 122.469 14.4451 122.214 13.7109C121.99 13.0854 121.597 12.5346 121.079 12.12C120.584 11.7363 119.973 11.5338 119.347 11.546C118.966 11.5281 118.587 11.6068 118.244 11.7749C117.902 11.943 117.608 12.1951 117.388 12.5077C116.887 13.2999 116.643 14.2288 116.69 15.166C116.676 15.9968 116.815 16.8231 117.102 17.6028C117.332 18.2495 117.722 18.8266 118.237 19.2793C118.69 19.6717 119.27 19.8863 119.869 19.8835C120.37 19.8861 120.858 19.7253 121.26 19.4254Z" fill="white"/>
<path d="M133.621 19.9787C133.621 20.0341 133.621 20.0643 133.576 20.0643H131.461C131.381 20.0643 131.215 19.873 130.959 19.4903C130.647 18.9782 130.363 18.4487 130.111 17.9044C129.776 17.2331 129.466 16.4896 129.182 15.674C129.085 15.6809 128.987 15.6809 128.89 15.674C128.458 15.674 128.167 15.674 128.022 15.674V18.9264C128.011 19.1406 128.037 19.3551 128.097 19.5608C128.123 19.625 128.163 19.6825 128.214 19.7287C128.265 19.775 128.327 19.8088 128.393 19.8276C128.628 19.8843 128.87 19.908 129.111 19.8981C129.111 19.8981 129.141 19.9233 129.141 19.9787C129.141 20.0341 129.141 20.0643 129.111 20.0643C128.805 20.0643 128.559 20.0643 128.383 20.0643H127.318H126.314C126.127 20.0643 125.876 20.0643 125.561 20.0643C125.531 20.0643 125.516 20.0341 125.516 19.9787C125.516 19.9233 125.516 19.8981 125.561 19.8981C125.779 19.9068 125.997 19.883 126.209 19.8276C126.273 19.8058 126.332 19.7695 126.381 19.7215C126.43 19.6736 126.467 19.6152 126.49 19.5507C126.549 19.3482 126.575 19.1373 126.565 18.9264V12.4316C126.576 12.2228 126.552 12.0135 126.495 11.8124C126.473 11.7488 126.436 11.6912 126.388 11.6441C126.341 11.5969 126.282 11.5615 126.219 11.5405C126.008 11.4811 125.789 11.4556 125.571 11.465C125.571 11.465 125.546 11.4348 125.546 11.3794C125.546 11.324 125.546 11.2938 125.571 11.2938H126.314C126.741 11.2938 127.082 11.324 127.318 11.324C127.555 11.324 127.891 11.324 128.217 11.2787L128.614 11.2535C128.78 11.2535 128.971 11.2535 129.197 11.2535C129.897 11.2099 130.596 11.3727 131.205 11.7217C131.427 11.8605 131.609 12.0545 131.733 12.2849C131.857 12.5153 131.919 12.774 131.913 13.0358C131.908 13.505 131.753 13.9601 131.472 14.3348C131.175 14.7405 130.791 15.0729 130.347 15.3065C130.873 16.5378 131.512 17.7176 132.255 18.8308C132.757 19.5356 133.214 19.8931 133.576 19.8931C133.606 19.8981 133.621 19.9233 133.621 19.9787ZM128.946 15.3216C129.22 15.3352 129.494 15.2816 129.744 15.1655C129.945 15.0579 130.097 14.878 130.171 14.662C130.269 14.3152 130.313 13.9551 130.301 13.5947C130.355 13.0439 130.237 12.4901 129.965 12.0087C129.851 11.8636 129.704 11.7483 129.536 11.6729C129.368 11.5975 129.184 11.5641 129.001 11.5757C128.734 11.5472 128.467 11.621 128.253 11.7822C128.172 11.8793 128.111 11.9917 128.074 12.1128C128.037 12.2338 128.024 12.361 128.037 12.487V15.2914C128.338 15.3242 128.642 15.3343 128.946 15.3216Z" fill="white"/>
<path d="M143.39 19.9787C143.39 20.0341 143.39 20.0643 143.36 20.0643H140.849C140.643 20.0643 140.261 19.6766 139.704 18.9063C138.977 17.8658 138.306 16.7868 137.695 15.674C137.586 15.6807 137.477 15.6807 137.369 15.674C137.007 15.674 136.751 15.674 136.6 15.674V18.9264C136.591 19.1402 136.615 19.3542 136.671 19.5608C136.693 19.6231 136.728 19.6795 136.775 19.7257C136.822 19.772 136.879 19.8068 136.942 19.8276C137.155 19.8829 137.375 19.9067 137.595 19.8981C137.595 19.8981 137.625 19.9233 137.625 19.9787C137.625 20.0341 137.625 20.0643 137.595 20.0643C137.288 20.0643 137.042 20.0643 136.866 20.0643H135.802H134.797C134.612 20.0643 134.361 20.0643 134.039 20.0643C134.039 20.0643 133.999 20.0341 133.999 19.9787C133.999 19.9233 133.999 19.8981 134.039 19.8981C134.259 19.9071 134.479 19.8833 134.692 19.8276C134.757 19.8058 134.816 19.7695 134.864 19.7215C134.913 19.6736 134.95 19.6152 134.973 19.5507C135.033 19.3482 135.058 19.1373 135.049 18.9264V12.4316C135.057 12.2228 135.033 12.014 134.978 11.8124C134.956 11.7481 134.919 11.69 134.87 11.6427C134.821 11.5955 134.762 11.5605 134.697 11.5405C134.488 11.4807 134.271 11.4552 134.054 11.465C134.054 11.465 134.029 11.4348 134.029 11.3794C134.029 11.324 134.029 11.2938 134.054 11.2938H134.797C135.224 11.2938 135.566 11.324 135.802 11.324C136.038 11.324 136.374 11.324 136.701 11.2787L137.098 11.2535C137.263 11.2535 137.454 11.2535 137.68 11.2535C138.381 11.2099 139.079 11.3727 139.689 11.7217C139.91 11.8605 140.092 12.0545 140.216 12.2849C140.34 12.5153 140.403 12.774 140.397 13.0358C140.393 13.4771 140.256 13.907 140.005 14.2693C139.748 14.6609 139.404 14.9881 139.001 15.2259C139.751 16.404 140.378 17.3254 140.884 17.99C141.272 18.5294 141.728 19.0167 142.24 19.44C142.564 19.7156 142.97 19.8766 143.395 19.8981C143.395 19.8981 143.39 19.9233 143.39 19.9787ZM137.414 15.3216C137.689 15.3352 137.963 15.2816 138.212 15.1655C138.413 15.0579 138.566 14.878 138.639 14.662C138.738 14.3152 138.782 13.9551 138.77 13.5947C138.823 13.0439 138.706 12.4901 138.433 12.0087C138.32 11.8636 138.172 11.7483 138.005 11.6729C137.837 11.5975 137.653 11.5641 137.469 11.5757C137.349 11.5627 137.227 11.5743 137.112 11.6098C136.996 11.6453 136.889 11.7039 136.796 11.7822C136.645 11.9842 136.575 12.2358 136.6 12.487V15.2914C136.87 15.3221 137.142 15.3322 137.414 15.3216Z" fill="white"/>
<path d="M150.22 17.8043C150.245 17.7979 150.27 17.7979 150.295 17.8043C150.32 17.8043 150.33 17.8043 150.33 17.8345C150.24 18.502 150.193 19.1748 150.19 19.8484C150.194 19.9051 150.18 19.9618 150.15 20.0095C150.126 20.0296 150.099 20.0445 150.07 20.0532C150.04 20.0618 150.009 20.0641 149.979 20.0599H143.807C143.777 20.0599 143.762 20.0297 143.762 19.9743C143.762 19.9189 143.762 19.8937 143.807 19.8937C144.025 19.9024 144.243 19.8786 144.455 19.8232C144.519 19.8018 144.576 19.7655 144.623 19.7174C144.671 19.6693 144.706 19.6106 144.726 19.5463C144.783 19.3434 144.807 19.1326 144.796 18.922V12.4323C144.807 12.2234 144.783 12.0142 144.726 11.813C144.704 11.7491 144.668 11.6911 144.62 11.6439C144.572 11.5966 144.514 11.5614 144.45 11.5411C144.241 11.482 144.024 11.4565 143.807 11.4656C143.777 11.4656 143.762 11.4354 143.762 11.38C143.762 11.3246 143.762 11.2944 143.807 11.2944H149.738C149.833 11.2944 149.878 11.3397 149.878 11.4203L149.903 13.2882C149.903 13.2882 149.878 13.3234 149.828 13.3285C149.778 13.3335 149.748 13.3285 149.738 13.3033C149.63 12.8268 149.364 12.401 148.984 12.095C148.569 11.8126 148.074 11.6731 147.573 11.6972H147.151C146.932 11.6789 146.713 11.7436 146.539 11.8785C146.469 11.9538 146.416 12.0428 146.382 12.1399C146.348 12.2369 146.335 12.3399 146.343 12.4423V15.3021H147.503C147.936 15.3285 148.367 15.2326 148.748 15.0252C148.884 14.9446 148.995 14.8293 149.071 14.6913C149.147 14.5532 149.185 14.3973 149.18 14.2397C149.18 14.2095 149.205 14.1944 149.261 14.1944C149.316 14.1944 149.336 14.1944 149.336 14.2397V15.4984V16.1731C149.336 16.4903 149.366 16.742 149.366 16.9333C149.366 16.9333 149.336 16.9585 149.281 16.9585C149.225 16.9585 149.195 16.9585 149.195 16.9333C149.203 16.7573 149.166 16.5822 149.089 16.4239C149.012 16.2657 148.897 16.1293 148.753 16.0271C148.379 15.7817 147.935 15.665 147.488 15.6948H146.343V18.8666C146.328 19.0789 146.381 19.2904 146.494 19.4708C146.556 19.541 146.634 19.5954 146.721 19.6295C146.808 19.6637 146.903 19.6766 146.996 19.6672H147.458C148.072 19.697 148.681 19.5409 149.205 19.2191C149.673 18.8773 150.013 18.388 150.17 17.8295C150.17 17.8295 150.18 17.8043 150.22 17.8043Z" fill="white"/>
<path d="M161.094 11.3791C161.094 11.4345 161.094 11.4647 161.063 11.4647C160.891 11.4568 160.72 11.4934 160.566 11.571C160.412 11.6486 160.281 11.7646 160.185 11.9078C159.953 12.2572 159.84 12.6722 159.863 13.091V20.2554C159.863 20.2554 159.838 20.3007 159.798 20.3107C159.784 20.3187 159.769 20.3229 159.753 20.3229C159.737 20.3229 159.721 20.3187 159.707 20.3107L153.144 12.8241V18.2817C153.12 18.6969 153.228 19.1091 153.45 19.4599C153.545 19.5985 153.673 19.7111 153.822 19.7876C153.971 19.8641 154.137 19.902 154.304 19.8979C154.304 19.8979 154.334 19.9231 154.334 19.9784C154.334 20.0338 154.334 20.064 154.304 20.064C154.043 20.064 153.842 20.064 153.701 20.064H152.948H152.079C151.924 20.064 151.693 20.064 151.396 20.064C151.366 20.064 151.351 20.0338 151.351 19.9784C151.351 19.9231 151.351 19.8979 151.396 19.8979C151.581 19.9056 151.764 19.87 151.933 19.794C152.101 19.7179 152.249 19.6035 152.366 19.4599C152.621 19.1225 152.747 18.7046 152.722 18.2817V12.3458C152.495 12.0763 152.229 11.8421 151.934 11.651C151.728 11.5303 151.494 11.466 151.256 11.4647C151.256 11.4647 151.226 11.4345 151.226 11.3791C151.226 11.3238 151.226 11.2936 151.256 11.2936H151.843C151.964 11.2936 152.14 11.2936 152.376 11.2936H153.435C153.566 11.2936 153.726 11.2936 153.912 11.2936C153.974 11.2903 154.035 11.31 154.083 11.3489L154.279 11.5906C154.435 11.8071 154.55 11.9481 154.615 12.0236L159.456 17.6222V13.091C159.48 12.6704 159.371 12.253 159.145 11.8977C159.05 11.7601 158.922 11.6484 158.773 11.5728C158.624 11.4972 158.458 11.46 158.291 11.4647C158.291 11.4647 158.291 11.4345 158.291 11.3791C158.291 11.3238 158.291 11.2936 158.291 11.2936H158.894C159.195 11.2936 159.446 11.3238 159.652 11.3238C159.858 11.3238 160.099 11.3238 160.436 11.2936H161.063C161.063 11.2936 161.094 11.3238 161.094 11.3791Z" fill="white"/>
<path d="M161.946 13.7909C161.946 13.8211 161.906 13.8312 161.86 13.8261C161.815 13.8211 161.79 13.8261 161.79 13.7808C161.825 13.4032 161.87 12.9199 161.916 12.3258C161.961 11.7317 161.986 11.2886 161.986 10.9866C161.986 10.9412 162.011 10.9161 162.061 10.9161C162.111 10.9161 162.142 10.9161 162.142 10.9866C162.142 11.193 162.408 11.2937 162.94 11.2937C163.739 11.3239 164.678 11.339 165.752 11.339C166.301 11.339 166.884 11.3289 167.5 11.3088H168.449C168.71 11.3203 168.972 11.2966 169.227 11.2383C169.3 11.2243 169.367 11.1914 169.423 11.1427C169.478 11.0941 169.52 11.0315 169.544 10.9614C169.544 10.9211 169.584 10.906 169.634 10.906C169.684 10.906 169.709 10.906 169.709 10.9614C169.684 11.2383 169.654 11.6914 169.619 12.3057C169.584 12.9199 169.569 13.4183 169.569 13.8161C169.569 13.8161 169.569 13.8564 169.499 13.8564C169.428 13.8564 169.428 13.8564 169.418 13.8161C169.334 13.2065 169.06 12.6392 168.635 12.1949C168.446 12.0154 168.224 11.8749 167.981 11.7816C167.738 11.6883 167.479 11.644 167.219 11.6511C167.122 11.6383 167.023 11.6474 166.93 11.6779C166.837 11.7084 166.752 11.7595 166.681 11.8274C166.573 12.0329 166.528 12.2658 166.551 12.497V18.9263C166.539 19.1409 166.566 19.3559 166.631 19.5607C166.662 19.6257 166.707 19.6831 166.763 19.7292C166.818 19.7752 166.883 19.8087 166.952 19.8275C167.201 19.8831 167.456 19.9068 167.711 19.898C167.711 19.898 167.751 19.9232 167.751 19.9786C167.751 20.034 167.751 20.0642 167.711 20.0642C167.376 20.0642 167.11 20.0642 166.912 20.0642H165.752H164.617C164.423 20.0642 164.152 20.0642 163.804 20.0642C163.779 20.0642 163.764 20.034 163.764 19.9786C163.764 19.9232 163.764 19.898 163.804 19.898C164.055 19.9059 164.307 19.8822 164.552 19.8275C164.625 19.8096 164.694 19.7755 164.752 19.7275C164.81 19.6796 164.857 19.6191 164.889 19.5506C164.959 19.3505 164.99 19.1383 164.979 18.9263V12.4315C165.001 12.209 164.957 11.9849 164.853 11.7871C164.787 11.7232 164.708 11.6748 164.621 11.6452C164.535 11.6156 164.442 11.6056 164.351 11.6159C163.233 11.6159 162.431 12.3409 161.946 13.7909Z" fill="white"/>
<path d="M172.782 19.6215C172.116 19.2273 171.573 18.6534 171.215 17.9651C170.844 17.2647 170.655 16.4823 170.663 15.6894C170.636 14.8054 170.891 13.9358 171.391 13.2073C171.861 12.5294 172.507 11.9932 173.259 11.6566C173.991 11.3216 174.786 11.1499 175.589 11.1531C176.411 11.1355 177.221 11.352 177.925 11.7774C178.575 12.1741 179.105 12.7394 179.461 13.4137C179.815 14.0837 180 14.8305 179.999 15.5887C180.006 16.4181 179.773 17.2318 179.326 17.9298C178.883 18.6396 178.264 19.2211 177.528 19.6165C176.786 20.0345 175.949 20.2547 175.097 20.2559C174.282 20.2636 173.48 20.044 172.782 19.6215ZM176.965 19.4251C177.417 19.0853 177.76 18.622 177.955 18.0909C178.201 17.4209 178.318 16.7103 178.301 15.9965C178.314 15.2086 178.181 14.4251 177.91 13.6856C177.686 13.0613 177.295 12.5109 176.78 12.0946C176.282 11.7113 175.669 11.5089 175.042 11.5206C174.661 11.5027 174.282 11.5815 173.94 11.7496C173.597 11.9177 173.303 12.1697 173.084 12.4823C172.582 13.2834 172.343 14.2217 172.401 15.1658C172.386 15.9966 172.526 16.8229 172.812 17.6026C173.039 18.2482 173.426 18.8252 173.937 19.2791C174.391 19.6714 174.97 19.886 175.569 19.8833C176.067 19.8837 176.551 19.723 176.95 19.4251H176.965Z" fill="white"/>
<path d="M92.8706 32.5201C92.8706 32.5503 92.8706 32.5654 92.8706 32.5654H91.58C91.4544 32.5654 91.2284 32.3439 90.892 31.8958C90.5555 31.4477 90.1487 30.8234 89.6717 30.0178C89.5831 30.0253 89.4941 30.0253 89.4055 30.0178H88.9887V31.9008C88.9826 32.0234 88.9979 32.1461 89.0339 32.2633C89.0473 32.3001 89.0693 32.333 89.0982 32.3593C89.1271 32.3856 89.1619 32.4045 89.1996 32.4144C89.3295 32.4454 89.4629 32.4589 89.5963 32.4547C89.5963 32.4547 89.5963 32.4547 89.5963 32.505C89.5963 32.5553 89.5963 32.5503 89.5963 32.5503H89.1896H88.592H88.0145H87.5625C87.5625 32.5503 87.5625 32.5503 87.5625 32.505C87.5625 32.4597 87.5625 32.4547 87.5625 32.4547C87.696 32.4597 87.8295 32.4462 87.9592 32.4144C87.9983 32.4032 88.0344 32.3834 88.0648 32.3564C88.0953 32.3294 88.1192 32.2959 88.135 32.2583C88.1702 32.1426 88.1855 32.0217 88.1802 31.9008V28.1751C88.1846 28.0563 88.1711 27.9375 88.14 27.8227C88.1239 27.7853 88.0999 27.752 88.0695 27.725C88.0391 27.698 88.0032 27.6781 87.9642 27.6666C87.8369 27.631 87.7047 27.6157 87.5725 27.6213C87.5725 27.6213 87.5725 27.6213 87.5725 27.571C87.5725 27.5206 87.5725 27.5257 87.5725 27.5257H87.9894H88.5568C88.7175 27.5257 88.8883 27.5257 89.059 27.5257H89.29H89.5913C89.9748 27.5008 90.3567 27.5939 90.6861 27.7925C90.81 27.8718 90.911 27.9824 90.9789 28.1132C91.0467 28.244 91.0791 28.3903 91.0728 28.5376C91.072 28.7935 90.9931 29.043 90.8468 29.2526C90.6991 29.4795 90.4993 29.6677 90.2642 29.8014C90.7011 30.476 91.0677 31.0047 91.364 31.3923C91.5925 31.7017 91.8591 31.9808 92.1575 32.2231C92.3478 32.3799 92.5842 32.4701 92.8304 32.4798C92.8304 32.4798 92.8706 32.4849 92.8706 32.5201ZM89.4256 29.8215C89.5478 29.8341 89.6712 29.8209 89.788 29.7828C89.9048 29.7446 90.0123 29.6823 90.1035 29.6C90.2559 29.3645 90.3233 29.0837 90.2944 28.8045C90.327 28.4882 90.2508 28.1702 90.0784 27.9033C90.0024 27.8167 89.9078 27.7486 89.8016 27.7041C89.6955 27.6596 89.5806 27.6399 89.4658 27.6465C89.3923 27.6455 89.3193 27.6593 89.2512 27.687C89.1831 27.7146 89.1212 27.7556 89.069 27.8076C88.9848 27.9315 88.9474 28.0815 88.9636 28.2305V29.8215C89.1174 29.8337 89.2718 29.8337 89.4256 29.8215Z" fill="white"/>
<path d="M97.5308 31.2963H97.576C97.5242 31.6666 97.4973 32.04 97.4956 32.414C97.5056 32.4451 97.5056 32.4785 97.4956 32.5096C97.4647 32.5204 97.4311 32.5204 97.4002 32.5096H93.915C93.915 32.5096 93.915 32.5097 93.915 32.4643C93.915 32.419 93.915 32.414 93.915 32.414C94.0502 32.4187 94.1853 32.4052 94.3168 32.3737C94.3545 32.3622 94.3891 32.3422 94.4179 32.3151C94.4466 32.2881 94.4687 32.2547 94.4825 32.2176C94.5178 32.1019 94.5331 31.981 94.5277 31.8602V28.1345C94.5336 28.0152 94.5183 27.8959 94.4825 27.782C94.4676 27.7448 94.4445 27.7115 94.4149 27.6845C94.3854 27.6574 94.3501 27.6375 94.3118 27.626C94.1827 27.5901 94.0488 27.5748 93.915 27.5807C93.915 27.5807 93.915 27.5807 93.915 27.5303C93.915 27.48 93.915 27.485 93.915 27.485H97.2546C97.3098 27.485 97.3349 27.485 97.3349 27.5555V28.6027C97.3349 28.6027 97.3349 28.6027 97.2897 28.6027C97.2445 28.6027 97.2445 28.6027 97.2395 28.6027C97.2091 28.3346 97.0756 28.0889 96.8675 27.9178C96.6593 27.7467 96.3929 27.6637 96.1247 27.6864H95.8033C95.6595 27.6729 95.5156 27.7103 95.3965 27.7921C95.3521 27.8386 95.3183 27.8942 95.2975 27.955C95.2767 28.0159 95.2693 28.0806 95.276 28.1446V29.7859H96.0443C96.6319 29.7859 96.9281 29.5895 96.9281 29.1918C96.9281 29.1918 96.9281 29.1666 96.9733 29.1666C97.0185 29.1666 97.0135 29.1666 97.0135 29.1918V30.3246C97.0135 30.4958 97.0135 30.6367 97.0135 30.7425C97.0135 30.7425 97.0135 30.7425 96.9633 30.7425C96.9131 30.7425 96.9131 30.7425 96.9131 30.7425C96.9131 30.2843 96.6168 30.0527 96.0142 30.0527H95.2559V31.8753C95.2474 31.9409 95.2518 32.0077 95.2691 32.0716C95.2863 32.1355 95.316 32.1954 95.3563 32.2478C95.4573 32.3275 95.5849 32.3654 95.7129 32.3536H96.1046C96.4217 32.3842 96.7391 32.2971 96.9965 32.1087C97.2538 31.9203 97.4332 31.6438 97.5006 31.3315C97.5006 31.3315 97.5107 31.2963 97.5308 31.2963Z" fill="white"/>
<path d="M100.233 28.9201C100.338 29.0741 100.469 29.2086 100.62 29.3179C100.765 29.4286 100.966 29.5646 101.217 29.7206C101.468 29.8767 101.719 30.0378 101.865 30.1637C102.026 30.2888 102.162 30.4424 102.267 30.6168C102.377 30.8079 102.433 31.0256 102.428 31.2462C102.431 31.5067 102.358 31.7625 102.217 31.9812C102.067 32.2026 101.858 32.3771 101.614 32.4847C101.336 32.6099 101.035 32.6718 100.73 32.666C100.495 32.6639 100.261 32.6352 100.032 32.5804C99.8419 32.5401 99.66 32.4668 99.4948 32.3639C99.47 32.3462 99.4497 32.3228 99.4357 32.2956C99.4217 32.2685 99.4145 32.2383 99.4145 32.2078L99.3643 30.9844C99.3642 30.9793 99.3653 30.9742 99.3673 30.9696C99.3694 30.965 99.3724 30.9608 99.3763 30.9575C99.3801 30.9541 99.3846 30.9516 99.3894 30.9502C99.3943 30.9488 99.3994 30.9484 99.4044 30.9491C99.4116 30.9434 99.4204 30.9403 99.4295 30.9403C99.4387 30.9403 99.4475 30.9434 99.4546 30.9491C99.601 31.3425 99.804 31.7123 100.057 32.0467C100.16 32.1809 100.292 32.2892 100.444 32.3626C100.596 32.4361 100.763 32.4727 100.931 32.4696C101.139 32.4769 101.344 32.411 101.509 32.2833C101.593 32.2021 101.657 32.1028 101.697 31.9929C101.737 31.8829 101.752 31.7653 101.74 31.6489C101.746 31.4321 101.692 31.2178 101.584 31.0297C101.483 30.86 101.352 30.7099 101.197 30.5866C101.047 30.4708 100.836 30.3248 100.575 30.1536C100.313 29.9824 100.118 29.8465 99.9719 29.7307C99.8267 29.6116 99.7027 29.4686 99.6053 29.3078C99.5023 29.1271 99.4502 28.9218 99.4546 28.7137C99.4464 28.4588 99.5282 28.2092 99.6857 28.0088C99.8446 27.8112 100.055 27.6614 100.293 27.5758C100.542 27.4808 100.806 27.4329 101.072 27.4349C101.255 27.4364 101.438 27.4532 101.619 27.4852C101.776 27.5128 101.929 27.5584 102.076 27.6212C102.114 27.6286 102.148 27.6502 102.171 27.6816C102.179 27.7113 102.179 27.7425 102.171 27.7722L102.197 28.8698C102.197 28.8698 102.197 28.8698 102.151 28.905C102.106 28.9403 102.106 28.905 102.101 28.905C101.998 28.5897 101.853 28.2899 101.669 28.0139C101.581 27.8833 101.461 27.7779 101.32 27.7081C101.179 27.6384 101.023 27.6067 100.866 27.6161C100.76 27.6111 100.655 27.6272 100.556 27.6635C100.457 27.6998 100.366 27.7556 100.288 27.8276C100.216 27.9026 100.16 27.9919 100.123 28.0899C100.087 28.1878 100.071 28.2922 100.077 28.3965C100.077 28.5825 100.131 28.7646 100.233 28.9201Z" fill="white"/>
<path d="M104.522 28.0091C104.275 28.263 104.101 28.5798 104.02 28.9254C104.02 28.9254 104.02 28.9254 103.975 28.9254C103.93 28.9254 103.93 28.9254 103.93 28.9254C103.93 28.714 103.975 28.422 104 28.1148C104.025 27.8077 104.04 27.5409 104.04 27.3747C104.04 27.3445 104.04 27.3345 104.085 27.3345C104.131 27.3345 104.131 27.3345 104.131 27.3747C104.131 27.4905 104.281 27.5509 104.578 27.5509C105.04 27.5509 105.582 27.5509 106.195 27.5509H107.199H107.746C107.896 27.5553 108.046 27.5418 108.193 27.5107C108.234 27.5 108.272 27.4799 108.303 27.4519C108.334 27.4239 108.359 27.3888 108.374 27.3496C108.375 27.3443 108.376 27.3391 108.379 27.3345C108.382 27.3298 108.385 27.3257 108.389 27.3225C108.393 27.3192 108.398 27.3168 108.403 27.3154C108.409 27.314 108.414 27.3136 108.419 27.3143C108.444 27.3143 108.459 27.3143 108.459 27.3496C108.459 27.5174 108.444 27.7691 108.414 28.1048C108.414 28.4421 108.389 28.714 108.389 28.9254C108.389 28.9254 108.389 28.9254 108.344 28.9254C108.299 28.9254 108.299 28.9254 108.294 28.9254C108.273 28.588 108.141 28.2671 107.917 28.0141C107.761 27.8841 107.576 27.7931 107.378 27.7484C107.18 27.7038 106.974 27.7069 106.777 27.7574C106.745 27.7695 106.716 27.7883 106.692 27.8126C106.667 27.837 106.649 27.8662 106.636 27.8983C106.608 28.0015 106.596 28.1086 106.601 28.2155V31.9261C106.595 32.0487 106.61 32.1714 106.646 32.2886C106.664 32.327 106.691 32.3606 106.724 32.3868C106.757 32.413 106.796 32.4311 106.837 32.4397C106.989 32.4709 107.144 32.4844 107.299 32.4799C107.299 32.4799 107.299 32.4799 107.299 32.5303C107.299 32.5806 107.299 32.5756 107.299 32.5756H106.857H106.2H105.572H105.14C105.14 32.5756 105.14 32.5756 105.14 32.5303C105.14 32.485 105.14 32.4799 105.14 32.4799C105.295 32.4844 105.45 32.4709 105.602 32.4397C105.645 32.4309 105.686 32.4123 105.721 32.3852C105.755 32.3581 105.784 32.3234 105.803 32.2836C105.845 32.1693 105.864 32.0478 105.858 31.9261V28.2004C105.862 28.0965 105.849 27.9926 105.818 27.8933C105.788 27.8314 105.736 27.783 105.672 27.7574C105.568 27.7266 105.459 27.713 105.351 27.7171C105.2 27.7079 105.049 27.7289 104.907 27.7791C104.765 27.8292 104.634 27.9074 104.522 28.0091Z" fill="white"/>
<path d="M114.757 32.5198C114.757 32.55 114.757 32.5651 114.717 32.5651H114.214H113.712H113.24H112.813C112.813 32.5651 112.783 32.5651 112.783 32.5198C112.783 32.4745 112.783 32.4695 112.813 32.4695C112.929 32.477 113.046 32.4599 113.155 32.4191C113.189 32.4047 113.218 32.38 113.238 32.3485C113.257 32.317 113.267 32.2801 113.265 32.2429C113.26 32.1026 113.229 31.9644 113.175 31.8351L112.306 30.0729H110.855L110.237 31.4625C110.172 31.5997 110.136 31.7488 110.132 31.9005C110.128 31.9821 110.145 32.0632 110.18 32.1368C110.215 32.2105 110.267 32.2746 110.332 32.3234C110.5 32.4292 110.697 32.4803 110.895 32.4695C110.92 32.4695 110.935 32.4695 110.935 32.5198C110.935 32.5701 110.935 32.5651 110.895 32.5651H110.478H109.946H109.444H109.017C108.992 32.5651 108.977 32.5651 108.977 32.5198C108.977 32.4745 108.977 32.4695 109.017 32.4695C109.148 32.4741 109.278 32.4428 109.393 32.3788C109.517 32.2999 109.619 32.1908 109.69 32.0616C109.82 31.843 109.936 31.6159 110.036 31.382L111.759 27.4901C111.769 27.4807 111.781 27.4736 111.794 27.4693C111.807 27.465 111.82 27.4635 111.834 27.4649C111.846 27.4631 111.859 27.4644 111.87 27.4688C111.881 27.4732 111.892 27.4806 111.899 27.4901L113.863 31.4625C113.986 31.7453 114.143 32.0123 114.33 32.258C114.378 32.3209 114.44 32.3724 114.51 32.4089C114.58 32.4454 114.657 32.4661 114.737 32.4695C114.742 32.4695 114.757 32.4846 114.757 32.5198ZM110.92 29.8715H112.17L111.503 28.5222L110.92 29.8715Z" fill="white"/>
<path d="M119.631 27.8684C119.565 27.7899 119.481 27.728 119.387 27.6877C119.293 27.6475 119.191 27.6301 119.089 27.6368C119.089 27.6368 119.089 27.6368 119.089 27.5865C119.089 27.5361 119.089 27.5412 119.089 27.5412H119.455H119.957H120.394H120.746C120.746 27.5412 120.746 27.5412 120.746 27.5865C120.746 27.6318 120.746 27.6368 120.746 27.6368C120.649 27.6293 120.552 27.6466 120.465 27.6872C120.377 27.7277 120.301 27.7901 120.244 27.8684C120.118 28.0625 120.058 28.292 120.073 28.5229V30.7734C120.082 31.1251 119.997 31.4729 119.827 31.7804C119.668 32.065 119.428 32.2962 119.139 32.445C118.818 32.6073 118.463 32.6885 118.104 32.6816C117.744 32.6866 117.389 32.6073 117.065 32.45C116.767 32.3056 116.519 32.0761 116.352 31.7905C116.18 31.4832 116.093 31.1356 116.101 30.7835V28.1906C116.108 28.071 116.091 27.951 116.05 27.8382C116.035 27.801 116.012 27.7676 115.983 27.7406C115.953 27.7136 115.918 27.6936 115.88 27.6821C115.754 27.646 115.623 27.6307 115.493 27.6368C115.493 27.6368 115.468 27.6368 115.468 27.5865C115.468 27.5361 115.468 27.5412 115.493 27.5412H115.91H116.477H117.07H117.471C117.471 27.5412 117.497 27.5412 117.497 27.5865C117.497 27.6318 117.497 27.6368 117.471 27.6368C117.341 27.6307 117.21 27.646 117.085 27.6821C117.007 27.712 116.943 27.7718 116.909 27.8483C116.874 27.964 116.858 28.0849 116.864 28.2057V30.5016C116.825 31.0085 116.965 31.5131 117.261 31.9264C117.397 32.0852 117.568 32.2104 117.761 32.2925C117.953 32.3745 118.162 32.4112 118.37 32.3997C118.569 32.4103 118.767 32.3781 118.951 32.3051C119.136 32.2321 119.303 32.1201 119.44 31.9767C119.714 31.6419 119.85 31.2154 119.822 30.7835V28.5229C119.836 28.2891 119.768 28.0577 119.631 27.8684Z" fill="white"/>
<path d="M127.297 32.5203C127.297 32.5505 127.297 32.5656 127.272 32.5656H125.981C125.86 32.5656 125.629 32.3441 125.298 31.896C124.967 31.4479 124.555 30.8236 124.073 30.018C123.984 30.0257 123.895 30.0257 123.806 30.018H123.39V31.901C123.384 32.0236 123.399 32.1463 123.435 32.2635C123.449 32.3006 123.472 32.3337 123.502 32.36C123.531 32.3863 123.567 32.4051 123.606 32.4146C123.735 32.4464 123.869 32.4599 124.002 32.4549C124.002 32.4549 124.002 32.4549 124.002 32.5052C124.002 32.5555 124.002 32.5505 124.002 32.5505H123.591H122.998H122.42H122.004C122.004 32.5505 121.979 32.5505 121.979 32.5052C121.979 32.4599 121.979 32.4549 122.004 32.4549C122.137 32.4591 122.27 32.4456 122.4 32.4146C122.439 32.4031 122.474 32.3831 122.504 32.3561C122.533 32.3291 122.556 32.2957 122.571 32.2585C122.611 32.1438 122.628 32.0223 122.621 31.901V28.1753C122.627 28.0561 122.612 27.9368 122.576 27.8229C122.561 27.7857 122.538 27.7524 122.509 27.7253C122.479 27.6983 122.444 27.6783 122.405 27.6668C122.276 27.6309 122.142 27.6157 122.009 27.6215C122.009 27.6215 122.009 27.6215 122.009 27.5712C122.009 27.5208 122.009 27.5259 122.009 27.5259H122.425H122.998C123.159 27.5259 123.324 27.5259 123.5 27.5259H123.731H124.027C124.413 27.5003 124.796 27.5934 125.127 27.7927C125.25 27.8728 125.351 27.9835 125.419 28.1141C125.486 28.2447 125.519 28.3907 125.514 28.5378C125.513 28.7937 125.434 29.0432 125.288 29.2528C125.143 29.4722 124.951 29.6563 124.725 29.7915C125.167 30.4661 125.534 30.9948 125.83 31.3825C126.056 31.6927 126.321 31.9719 126.619 32.2132C126.81 32.3691 127.046 32.4591 127.292 32.47C127.292 32.47 127.297 32.4851 127.297 32.5203ZM123.857 29.8217C123.978 29.8349 124.101 29.8219 124.217 29.7837C124.333 29.7455 124.44 29.6829 124.53 29.6002C124.684 29.3691 124.753 29.0914 124.725 28.8148C124.758 28.4985 124.682 28.1805 124.51 27.9135C124.435 27.827 124.341 27.7589 124.235 27.7144C124.13 27.6699 124.016 27.6502 123.902 27.6568C123.76 27.6414 123.617 27.683 123.505 27.7726C123.417 27.8946 123.377 28.0456 123.395 28.1955V29.8217C123.548 29.8334 123.703 29.8334 123.857 29.8217Z" fill="white"/>
<path d="M133.761 32.52C133.761 32.5502 133.761 32.5653 133.721 32.5653H133.219H132.716H132.244H131.818C131.818 32.5653 131.787 32.5653 131.787 32.52C131.787 32.4747 131.787 32.4696 131.818 32.4696C131.934 32.4766 132.05 32.4595 132.159 32.4193C132.192 32.4041 132.22 32.3791 132.239 32.3476C132.258 32.3161 132.267 32.2797 132.265 32.2431C132.245 32.0998 132.199 31.9615 132.129 31.8353L131.265 30.0731H129.809L129.191 31.4627C129.13 31.6009 129.096 31.7496 129.091 31.9007C129.088 31.9822 129.104 32.0633 129.139 32.137C129.174 32.2107 129.226 32.2747 129.292 32.3236C129.458 32.4293 129.653 32.4804 129.849 32.4696C129.879 32.4696 129.889 32.4696 129.889 32.52C129.889 32.5703 129.889 32.5653 129.849 32.5653H129.432H128.93H128.428H128.006C127.976 32.5653 127.966 32.5653 127.966 32.52C127.966 32.4747 127.966 32.4696 128.006 32.4696C128.137 32.4731 128.267 32.4418 128.383 32.379C128.507 32.3001 128.608 32.1909 128.679 32.0618C128.809 31.8432 128.925 31.6161 129.025 31.3821L130.748 27.4903C130.757 27.481 130.768 27.4739 130.78 27.4696C130.792 27.4652 130.805 27.4637 130.818 27.4651C130.858 27.4651 130.878 27.4651 130.884 27.4903L132.852 31.4627C132.976 31.7455 133.133 32.0125 133.319 32.2582C133.367 32.321 133.429 32.3726 133.499 32.4091C133.569 32.4456 133.647 32.4663 133.726 32.4696C133.731 32.4696 133.761 32.4847 133.761 32.52ZM129.924 29.8717H131.19L130.527 28.5224L129.924 29.8717Z" fill="white"/>
<path d="M140.29 27.5865C140.29 27.6217 140.29 27.6368 140.29 27.6368C140.194 27.6306 140.099 27.648 140.011 27.6875C139.923 27.727 139.847 27.7874 139.788 27.8634C139.66 28.0585 139.598 28.2898 139.612 28.5229V32.6816C139.612 32.6816 139.612 32.6816 139.572 32.7118C139.564 32.7162 139.554 32.7185 139.544 32.7185C139.535 32.7185 139.525 32.7162 139.517 32.7118L135.75 28.3316V31.6042C135.737 31.8333 135.797 32.0608 135.921 32.2536C135.979 32.3307 136.056 32.3918 136.143 32.4314C136.231 32.471 136.327 32.4878 136.423 32.4802C136.423 32.4802 136.423 32.4802 136.423 32.5306C136.423 32.5809 136.423 32.5759 136.423 32.5759H136.097H135.67H135.198H134.766C134.766 32.5759 134.766 32.5759 134.766 32.5306C134.766 32.4852 134.766 32.4802 134.766 32.4802C134.867 32.486 134.968 32.4686 135.061 32.4293C135.154 32.3901 135.237 32.33 135.304 32.2536C135.438 32.0651 135.504 31.8357 135.489 31.6042V28.0799C135.374 27.9471 135.238 27.8333 135.088 27.7425C134.972 27.6793 134.843 27.6463 134.711 27.6469C134.711 27.6469 134.711 27.6469 134.711 27.5965C134.711 27.5462 134.711 27.5512 134.711 27.5512H135.032H135.329H135.831H136.062C136.096 27.5487 136.13 27.5595 136.157 27.5814C136.193 27.6217 136.225 27.6656 136.253 27.7123C136.343 27.8332 136.413 27.9188 136.453 27.9691L139.336 31.3776V28.5229C139.351 28.2904 139.292 28.0591 139.165 27.8634C139.108 27.7856 139.032 27.7239 138.944 27.6843C138.856 27.6446 138.759 27.6283 138.663 27.6368C138.663 27.6368 138.663 27.6368 138.663 27.5865C138.663 27.5361 138.663 27.5412 138.663 27.5412H138.995H139.421H139.853H140.205C140.205 27.5412 140.29 27.5563 140.29 27.5865Z" fill="white"/>
<path d="M142.069 28.0091C141.822 28.263 141.648 28.5798 141.567 28.9254C141.567 28.9254 141.567 28.9254 141.522 28.9254C141.477 28.9254 141.477 28.9254 141.477 28.9254C141.477 28.714 141.522 28.422 141.547 28.1148C141.572 27.8077 141.587 27.5409 141.587 27.3747C141.587 27.3445 141.587 27.3345 141.632 27.3345C141.677 27.3345 141.677 27.3345 141.677 27.3747C141.677 27.4905 141.828 27.5509 142.124 27.5509C142.586 27.5509 143.129 27.5509 143.741 27.5509H144.746H145.313C145.463 27.5553 145.613 27.5418 145.76 27.5107C145.801 27.5 145.838 27.4799 145.87 27.4519C145.901 27.4239 145.926 27.3888 145.941 27.3496C145.942 27.3443 145.943 27.3391 145.946 27.3345C145.948 27.3298 145.952 27.3257 145.956 27.3225C145.96 27.3192 145.965 27.3168 145.97 27.3154C145.976 27.314 145.981 27.3136 145.986 27.3143C146.011 27.3143 146.026 27.3143 146.026 27.3496C146.026 27.5174 146.011 27.7691 145.981 28.1048C145.981 28.4421 145.956 28.714 145.956 28.9254C145.956 28.9254 145.956 28.9254 145.911 28.9254C145.866 28.9254 145.866 28.9254 145.861 28.9254C145.84 28.588 145.708 28.2671 145.484 28.0141C145.328 27.8841 145.143 27.7931 144.945 27.7484C144.747 27.7038 144.541 27.7069 144.344 27.7574C144.312 27.7689 144.282 27.7875 144.258 27.8119C144.233 27.8363 144.215 27.8658 144.203 27.8983C144.173 28.0013 144.16 28.1083 144.163 28.2155V31.9261C144.158 32.049 144.175 32.1719 144.213 32.2886C144.231 32.3274 144.257 32.3615 144.29 32.3878C144.324 32.4141 144.363 32.4319 144.404 32.4397C144.556 32.4709 144.711 32.4844 144.866 32.4799C144.866 32.4799 144.866 32.4799 144.866 32.5303C144.866 32.5806 144.866 32.5756 144.866 32.5756H144.424H143.767H143.139H142.672C142.672 32.5756 142.672 32.5756 142.672 32.5303C142.672 32.485 142.672 32.4799 142.672 32.4799C142.827 32.4844 142.982 32.4709 143.134 32.4397C143.177 32.4309 143.218 32.4123 143.252 32.3852C143.287 32.3581 143.315 32.3234 143.335 32.2836C143.377 32.1693 143.395 32.0478 143.39 31.9261V28.2004C143.394 28.0965 143.381 27.9926 143.35 27.8933C143.32 27.8314 143.268 27.783 143.204 27.7574C143.1 27.7266 142.991 27.713 142.883 27.7171C142.584 27.7025 142.291 27.8076 142.069 28.0091Z" fill="white"/>
<path d="M24.6692 17.4096C24.701 16.9139 24.7649 16.4208 24.8605 15.9333C24.9396 15.5162 25.0413 15.1037 25.1654 14.6977C25.2994 14.1823 25.4886 13.683 25.7298 13.2084C26.2961 12.0953 27.1316 11.1422 28.1599 10.4361C29.1882 9.73008 30.3766 9.2936 31.6165 9.16655H31.6392H31.7592C33.4762 9.00414 35.0824 8.24496 36.2999 7.02042C36.5425 6.77279 36.768 6.50879 36.9746 6.23026C36.6305 7.48674 36.1622 8.70566 35.5767 9.86892C35.3626 10.2916 35.1323 10.7111 34.8858 11.1208C34.6393 11.5305 34.4253 11.8557 34.1755 12.2166C33.5219 13.1454 32.7894 14.0157 31.9862 14.818C31.4928 15.3107 30.9743 15.7774 30.4327 16.2162C31.4607 16.0376 32.4607 15.7238 33.4068 15.283C31.6005 17.0583 29.2753 18.2079 26.7709 18.564C26.5147 18.603 26.2584 18.6323 25.999 18.6518C25.9697 17.6358 26.1473 16.6245 26.5209 15.6797C26.8946 14.7348 27.4564 13.8763 28.172 13.1564C28.4539 12.8747 28.7575 12.616 29.0802 12.3825C27.3803 13.072 25.9943 14.3666 25.1881 16.0179C25.0908 16.213 25.0032 16.4146 24.9254 16.6162C24.8263 16.876 24.7408 17.1409 24.6692 17.4096ZM6.52893 37.3946C6.73592 37.1204 6.96132 36.8608 7.20355 36.6174C8.42107 35.3929 10.0273 34.6337 11.7443 34.4713H11.8643H11.887C13.1281 34.3441 14.3176 33.9069 15.3466 33.1996C16.3756 32.4924 17.2112 31.5377 17.777 30.4229C18.0177 29.9504 18.2069 29.4533 18.3413 28.9401C18.4654 28.5342 18.5672 28.1217 18.6462 27.7045C18.7422 27.2139 18.8062 26.7175 18.8376 26.2185C18.7681 26.48 18.6837 26.7373 18.5846 26.9891C18.5067 27.1907 18.4192 27.3923 18.3219 27.5874C17.5157 29.2387 16.1297 30.5333 14.4298 31.2228C14.7525 30.9894 15.0561 30.7306 15.338 30.4489C16.0526 29.7308 16.6141 28.8745 16.9882 27.932C17.3623 26.9895 17.5413 25.9806 17.5143 24.9666C17.2548 24.9861 16.9986 25.0153 16.7423 25.0544C14.2384 25.4153 11.9147 26.5682 10.1096 28.3451C11.0506 27.8975 12.0462 27.5761 13.0708 27.3891C11.6434 28.5459 10.3837 29.8964 9.32797 31.4017C9.07823 31.7626 8.84146 32.1268 8.61767 32.4975C8.39388 32.8682 8.14089 33.3267 7.92683 33.7494C7.34091 34.9147 6.87262 36.1359 6.52893 37.3946ZM6.20459 6.55218C6.47801 6.7597 6.737 6.98568 6.97976 7.22853C8.20116 8.44917 8.9584 10.0596 9.12039 11.7809V11.9012V11.9207C9.2481 13.1648 9.68494 14.3569 10.3909 15.3879C11.0969 16.419 12.0496 17.256 13.1616 17.8226C13.635 18.0643 14.1331 18.254 14.6471 18.3884C15.0521 18.5128 15.4635 18.6148 15.8796 18.694C16.369 18.7903 16.8641 18.8544 17.3618 18.8859C17.0934 18.8166 16.8292 18.7319 16.5704 18.6323C16.3694 18.5542 16.1683 18.4664 15.9737 18.3689C14.3266 17.5606 13.0353 16.1711 12.3476 14.4668C12.5805 14.7903 12.8386 15.0947 13.1195 15.3773C13.8376 16.0958 14.6944 16.6599 15.6374 17.035C16.5805 17.4102 17.5899 17.5885 18.604 17.5592C18.5846 17.2991 18.5554 17.0422 18.5165 16.7853C18.1607 14.2756 17.014 11.9456 15.2439 10.1356C15.6903 11.0789 16.0109 12.0771 16.1975 13.1044C15.7605 12.5617 15.295 12.0429 14.8028 11.55C14.0035 10.7429 13.1353 10.0074 12.2081 9.35189C11.8481 9.10151 11.4848 8.86414 11.1151 8.63977C10.7453 8.4154 10.288 8.16177 9.86637 7.94716C8.70609 7.36014 7.49029 6.89066 6.23703 6.54568L6.20459 6.55218ZM27.2866 26.3876C26.5147 26.1506 25.7096 26.0408 24.9027 26.0624C24.9222 26.3225 24.9513 26.5794 24.9903 26.8363C25.349 29.349 26.499 31.6811 28.2726 33.4925C27.8262 32.5492 27.5056 31.551 27.319 30.5237C27.7568 31.0667 28.2223 31.5866 28.7137 32.0813C29.5139 32.8865 30.382 33.6209 31.3084 34.2762C31.6684 34.5266 32.0317 34.7639 32.4014 34.9883C32.7711 35.2127 33.2285 35.4663 33.6501 35.6809C34.8171 36.2647 36.0395 36.7298 37.2989 37.0694C37.0254 36.8607 36.7665 36.6337 36.5237 36.3898C35.3023 35.1692 34.5451 33.5588 34.3831 31.8374V31.7171V31.6976C34.2557 30.4539 33.8194 29.262 33.114 28.231C32.4085 27.2 31.4566 26.3627 30.3451 25.7958C29.8738 25.5544 29.3779 25.3647 28.8661 25.23C28.4612 25.1056 28.0497 25.0035 27.6336 24.9243C27.1442 24.828 26.6491 24.7639 26.1514 24.7324C26.4195 24.8027 26.6837 24.8874 26.9428 24.9861C27.1439 25.0641 27.345 25.1519 27.5396 25.2495C29.1866 26.0577 30.4779 27.4473 31.1657 29.1515C30.9328 28.828 30.6747 28.5236 30.3937 28.241C29.5271 27.374 28.4595 26.736 27.2866 26.3843V26.3876ZM0 22.0335C0.339728 21.9878 0.682134 21.965 1.02491 21.9652C2.74914 21.9624 4.42035 22.5627 5.75052 23.6626C5.77827 23.6892 5.8075 23.7142 5.83809 23.7374C6.80251 24.5262 7.94845 25.0604 9.17151 25.2916C10.3946 25.5228 11.6559 25.4434 12.8406 25.0609C13.3468 24.8969 13.8339 24.6789 14.2936 24.4105C14.6666 24.2089 15.0298 23.9911 15.3801 23.7602C15.7926 23.4785 16.188 23.1723 16.564 22.8432C16.3243 22.9829 16.0774 23.1099 15.8245 23.2237C15.6266 23.3115 15.4223 23.3927 15.2147 23.4643C13.4885 24.0539 11.6066 23.9891 9.92475 23.2822C10.3173 23.3449 10.7143 23.3764 11.1118 23.3765C12.3338 23.378 13.5372 23.0763 14.6147 22.4985C15.3316 22.1171 15.9822 21.6219 16.5413 21.032C16.3434 20.8629 16.1423 20.7068 15.9347 20.5475C13.9054 19.0258 11.4436 18.1951 8.90957 18.177C9.89056 18.5255 10.8209 19.0034 11.6762 19.598C10.9845 19.525 10.2895 19.4881 9.59393 19.4874C8.45653 19.4878 7.32134 19.5879 6.20135 19.7866C5.77322 19.8614 5.34834 19.9524 4.9267 20.0565C4.50506 20.1606 4.00558 20.3036 3.55475 20.45C2.31938 20.8557 1.12835 21.3863 0 22.0335H0ZM27.6563 20.3849C27.8542 20.2971 28.0585 20.2158 28.2661 20.1443C30.0014 19.5512 31.8937 19.6195 33.582 20.3361C33.1894 20.2733 32.7925 20.2418 32.3949 20.2418C31.1716 20.2454 29.9681 20.5526 28.8921 21.1361C28.1809 21.519 27.5359 22.0141 26.9817 22.6026C27.1796 22.7717 27.3806 22.9277 27.5882 23.0871C29.6131 24.6055 32.0687 25.436 34.5972 25.4576C33.6162 25.109 32.6858 24.6312 31.8306 24.0366C32.5223 24.1096 33.2173 24.1465 33.9128 24.1471C35.0484 24.1422 36.1814 24.0377 37.2989 23.835C37.7303 23.7569 38.1519 23.6659 38.5736 23.5618C38.9952 23.4578 39.4947 23.3147 39.9455 23.1684C41.185 22.7626 42.3804 22.232 43.5132 21.5848C43.1736 21.6316 42.8312 21.6555 42.4883 21.6563C40.7637 21.6582 39.0924 21.0568 37.7627 19.9557C37.7339 19.929 37.7036 19.904 37.6719 19.8809C36.7064 19.0834 35.5564 18.5422 34.3277 18.3069C33.0989 18.0717 31.8309 18.15 30.6402 18.5347C30.1354 18.6995 29.6494 18.9175 29.1904 19.185C28.8175 19.3866 28.4542 19.6045 28.1039 19.8354C27.691 20.1213 27.2957 20.4318 26.9201 20.7654C27.1587 20.6258 27.4045 20.4988 27.6563 20.3849ZM19.5479 31.9122C19.475 32.6057 19.4382 33.3025 19.4376 33.9998C19.4383 35.1379 19.5381 36.2738 19.736 37.3946C19.8106 37.827 19.9014 38.2498 20.0052 38.6725C20.109 39.0952 20.2517 39.596 20.3976 40.048C20.8024 41.2906 21.3316 42.4891 21.9772 43.6248C21.9316 43.2842 21.9088 42.9409 21.9091 42.5973C21.9062 40.8686 22.505 39.1931 23.6021 37.8596C23.6287 37.8307 23.6536 37.8003 23.6767 37.7685C24.4634 36.8016 24.9963 35.6527 25.2269 34.4265C25.4575 33.2003 25.3783 31.9358 24.9968 30.7481C24.8333 30.2406 24.6158 29.7522 24.3481 29.2913C24.147 28.9174 23.9297 28.5532 23.6994 28.202C23.4224 27.7798 23.1202 27.3748 22.7945 26.9891C22.9338 27.2294 23.0605 27.4769 23.174 27.7305C23.2615 27.9289 23.3426 28.1337 23.414 28.3418C24.0056 30.0816 23.9375 31.9788 23.2226 33.6714C23.2853 33.2778 23.3168 32.8798 23.3167 32.4813C23.3182 31.2561 23.0173 30.0497 22.441 28.9694C22.059 28.2564 21.5651 27.6097 20.9782 27.0542C20.8095 27.2525 20.6539 27.4541 20.4949 27.6622C18.9804 29.6923 18.152 32.1542 18.1305 34.6892C18.4779 33.7045 18.9545 32.7707 19.5479 31.9122ZM21.5296 0C21.5763 0.340526 21.6001 0.68381 21.6009 1.02754C21.6028 2.7566 21.0029 4.43214 19.9046 5.76527C19.878 5.79414 19.8531 5.82454 19.83 5.85632C19.0357 6.82357 18.4964 7.9754 18.2618 9.20605C18.0272 10.4367 18.1047 11.7067 18.4873 12.8995C18.6508 13.407 18.8683 13.8954 19.136 14.3563C19.337 14.7302 19.5544 15.0944 19.7846 15.4456C20.0656 15.8592 20.371 16.2555 20.6993 16.6325C20.56 16.3921 20.4333 16.1447 20.3198 15.8911C20.2322 15.6927 20.1511 15.4879 20.0798 15.2797C19.4882 13.54 19.5563 11.6428 20.2711 9.95021C20.2086 10.3438 20.1771 10.7418 20.1771 11.1403C20.1846 12.3679 20.4955 13.5745 21.082 14.6522C21.4575 15.3697 21.946 16.0219 22.5285 16.5837C22.6972 16.3853 22.8529 16.1837 23.0118 15.9756C24.5263 13.9456 25.3547 11.4837 25.3762 8.94868C25.0273 9.92654 24.5507 10.8537 23.9589 11.7061C24.0317 11.0126 24.0685 10.3158 24.0691 9.61853C24.0699 8.47831 23.9711 7.34021 23.774 6.21725C23.6962 5.78369 23.6053 5.35772 23.5016 4.93933C23.388 4.47434 23.2551 4.01585 23.1091 3.56387C22.7044 2.32533 22.1751 1.13124 21.5296 0V0Z" fill="url(#paint0_linear_110_1969)"/>
<defs>
<linearGradient id="paint0_linear_110_1969" x1="21.7534" y1="0.338177" x2="21.7534" y2="43.9565" gradientUnits="userSpaceOnUse">
<stop stop-color="#EE4224"/>
<stop offset="0.05" stop-color="#E94925"/>
<stop offset="0.29" stop-color="#D36528"/>
<stop offset="0.53" stop-color="#C47A2B"/>
<stop offset="0.77" stop-color="#BB862C"/>
<stop offset="1" stop-color="#B88A2D"/>
</linearGradient>
</defs>
</svg>
