<svg width="180" height="44" viewBox="0 0 180 44" fill="none" xmlns="http://www.w3.org/2000/svg">
<path d="M55.2227 13.779C55.3941 14.0432 55.6079 14.277 55.8554 14.4709C56.1116 14.6679 56.448 14.9053 56.8598 15.1881C57.247 15.4302 57.6208 15.6932 57.9797 15.976C58.265 16.2047 58.5066 16.4837 58.6928 16.7992C58.8913 17.1368 58.9922 17.5233 58.9841 17.9154C58.9916 18.3802 58.8546 18.8357 58.5924 19.2185C58.3183 19.6088 57.9431 19.9163 57.5076 20.1074C57.0224 20.3229 56.4963 20.4297 55.9659 20.4205C55.522 20.4184 55.08 20.3607 54.6502 20.2488C54.3185 20.1858 54.0036 20.0533 53.7262 19.8599C53.6838 19.8327 53.6478 19.7965 53.6207 19.7538C53.592 19.7052 53.5797 19.6485 53.5856 19.5922L53.5404 17.3548C53.5404 17.3194 53.5655 17.2992 53.6107 17.2942C53.6559 17.2891 53.686 17.2942 53.6961 17.3396C53.9773 17.9154 54.2233 18.3801 54.4292 18.7336C54.6403 19.0916 54.9103 19.411 55.2277 19.6781C55.5325 19.9447 55.9236 20.0902 56.3275 20.0872C56.6616 20.1003 56.9893 19.9928 57.2515 19.7841C57.381 19.6522 57.4805 19.4936 57.5429 19.3191C57.6053 19.1447 57.6293 18.9587 57.6131 18.774C57.6221 18.3956 57.5284 18.022 57.3419 17.6932C57.1698 17.3912 56.9453 17.1226 56.679 16.9002C56.4179 16.6881 56.0563 16.4305 55.5993 16.1275C55.2373 15.8985 54.8885 15.649 54.5548 15.38C54.304 15.1699 54.0901 14.919 53.922 14.6376C53.7416 14.3323 53.6495 13.9825 53.6559 13.6275C53.642 13.1701 53.7937 12.7232 54.0827 12.3699C54.3728 12.0212 54.751 11.7577 55.1775 11.6072C55.6321 11.4447 56.1112 11.3627 56.5937 11.3648C56.9305 11.3648 57.2666 11.3953 57.598 11.4557C57.8745 11.4987 58.1456 11.5715 58.4065 11.6729C58.4741 11.6955 58.5335 11.7377 58.5773 11.7941C58.6052 11.8432 58.6191 11.8991 58.6175 11.9557V14.0214C58.6175 14.0517 58.6175 14.0719 58.5472 14.0871C58.4769 14.1022 58.4718 14.0871 58.4668 14.0871L58.3513 13.8194C58.1498 13.2785 57.8743 12.7686 57.5327 12.3042C57.3818 12.1016 57.184 11.9391 56.9564 11.8309C56.7289 11.7226 56.4785 11.6719 56.2271 11.683C55.8909 11.6686 55.562 11.7843 55.3081 12.0062C55.1846 12.1286 55.0888 12.2763 55.0273 12.4393C54.9658 12.6023 54.9399 12.7767 54.9515 12.9507C54.9621 13.247 55.0561 13.5343 55.2227 13.779Z" fill="white"/>
<path d="M67.3803 12.0624C67.266 11.9188 67.1194 11.8045 66.9527 11.729C66.7859 11.6535 66.6037 11.6189 66.4211 11.628C66.4211 11.628 66.396 11.5977 66.396 11.5422C66.396 11.4866 66.396 11.4563 66.4211 11.4563H67.094C67.4506 11.4563 67.7318 11.4866 67.9477 11.4866C68.1637 11.4866 68.3796 11.4866 68.7161 11.4563H69.3639C69.3639 11.4563 69.389 11.4866 69.389 11.5422C69.389 11.5977 69.389 11.628 69.3639 11.628C69.1969 11.6233 69.0314 11.6605 68.8823 11.7364C68.7332 11.8122 68.6053 11.9243 68.5102 12.0624C68.2845 12.4188 68.1756 12.8374 68.1988 13.2594V17.1736C68.2113 17.7779 68.0621 18.3744 67.7669 18.9009C67.48 19.3976 67.0538 19.7982 66.5416 20.0524C65.972 20.3282 65.3457 20.4649 64.7137 20.4514C64.0807 20.4636 63.4534 20.3287 62.8807 20.0575C62.3643 19.8116 61.9299 19.4204 61.6302 18.9312C61.318 18.3959 61.1598 17.7839 61.1733 17.1635V12.6179C61.1828 12.4081 61.1573 12.1981 61.0979 11.9967C61.074 11.9332 61.0364 11.8758 60.9878 11.8286C60.9391 11.7814 60.8807 11.7457 60.8167 11.724C60.6097 11.6638 60.3942 11.6382 60.1789 11.6482C60.1538 11.6482 60.1388 11.6179 60.1388 11.5624C60.1388 11.5068 60.1388 11.4765 60.1789 11.4765H60.9222C61.354 11.4765 61.6905 11.5068 61.9265 11.5068C62.1626 11.5068 62.5593 11.5068 62.9861 11.4765H63.7043C63.7294 11.4765 63.7444 11.5068 63.7444 11.5624C63.7444 11.6179 63.7444 11.6482 63.7043 11.6482C63.4882 11.6353 63.2716 11.6645 63.0665 11.7341C63.0025 11.76 62.9444 11.799 62.8961 11.8485C62.8477 11.8981 62.81 11.9571 62.7853 12.022C62.726 12.2251 62.7005 12.4367 62.7099 12.6482V16.6887C62.6397 17.5652 62.8721 18.4392 63.3678 19.1635C63.5945 19.433 63.8803 19.6458 64.2028 19.7852C64.5252 19.9246 64.8755 19.9866 65.2259 19.9666C65.5626 19.9848 65.8993 19.9307 66.2136 19.8079C66.5279 19.6851 66.8126 19.4964 67.0488 19.2544C67.5159 18.6898 67.7512 17.9673 67.7067 17.2342V13.2594C67.7362 12.8347 67.6211 12.4125 67.3803 12.0624Z" fill="white"/>
<path d="M79.7164 11.5413C79.7164 11.5968 79.7164 11.6271 79.6862 11.6271C79.5141 11.6192 79.3429 11.6559 79.189 11.7338C79.0351 11.8116 78.9037 11.9279 78.8074 12.0716C78.5746 12.4217 78.4601 12.8379 78.481 13.2585V20.4455C78.481 20.4455 78.481 20.491 78.4207 20.5011C78.4072 20.5096 78.3915 20.5141 78.3755 20.5141C78.3595 20.5141 78.3439 20.5096 78.3303 20.5011L71.7668 12.9908V18.4657C71.7432 18.8822 71.8504 19.2956 72.0731 19.6475C72.1677 19.7865 72.2954 19.8996 72.4445 19.9763C72.5936 20.053 72.7594 20.0911 72.9268 20.0869C72.9268 20.0869 72.957 20.1122 72.957 20.1677C72.957 20.2233 72.957 20.2536 72.9268 20.2536C72.6657 20.2536 72.4648 20.2536 72.3242 20.2536H71.5709H70.7022C70.5415 20.2536 70.3155 20.2536 70.0142 20.2536C69.9891 20.2536 69.974 20.2233 69.974 20.1677C69.974 20.1122 69.974 20.0869 70.0142 20.0869C70.1994 20.095 70.3839 20.0595 70.553 19.9832C70.7222 19.907 70.8713 19.792 70.9884 19.6475C71.2439 19.3091 71.3704 18.8898 71.345 18.4657V12.511C71.1169 12.2417 70.8513 12.007 70.5565 11.814C70.3508 11.6929 70.117 11.6284 69.8786 11.6271C69.8786 11.6271 69.8484 11.5968 69.8484 11.5413C69.8484 11.4857 69.8484 11.4554 69.8786 11.4554H70.4661C70.5867 11.4554 70.7624 11.4554 70.9985 11.4554H72.0581C72.1886 11.4554 72.3493 11.4554 72.5602 11.4554C72.622 11.4522 72.6828 11.4719 72.731 11.511L72.9268 11.7534C73.0825 11.9706 73.193 12.112 73.2583 12.1878L78.1043 17.804V13.2585C78.1276 12.8366 78.0187 12.4179 77.793 12.0615C77.6978 11.9234 77.5699 11.8114 77.4209 11.7355C77.2718 11.6597 77.1063 11.6224 76.9393 11.6271C76.9393 11.6271 76.9142 11.5968 76.9142 11.5413C76.9142 11.4857 76.9142 11.4554 76.9393 11.4554H77.5419C77.8432 11.4554 78.0943 11.4857 78.3002 11.4857C78.5061 11.4857 78.7471 11.4857 79.0836 11.4554H79.7113C79.7113 11.4554 79.7164 11.4857 79.7164 11.5413Z" fill="white"/>
<path d="M82.5416 13.779C82.7148 14.0434 82.9303 14.2772 83.1793 14.471C83.4304 14.6679 83.7719 14.9053 84.1837 15.1881C84.5709 15.4302 84.9447 15.6932 85.3036 15.976C85.6033 16.2011 85.8587 16.4802 86.0568 16.7993C86.2571 17.1363 86.3597 17.5229 86.3531 17.9155C86.3606 18.3802 86.2237 18.8358 85.9614 19.2185C85.6874 19.6089 85.3122 19.9163 84.8767 20.1074C84.3897 20.3229 83.862 20.4297 83.33 20.4206C82.886 20.4185 82.4441 20.3608 82.0143 20.2489C81.6826 20.1859 81.3677 20.0534 81.0903 19.86C81.0501 19.8301 81.0145 19.7943 80.9848 19.7539C80.9561 19.7052 80.9438 19.6486 80.9497 19.5923L80.9095 17.3549C80.9095 17.3195 80.9095 17.2993 80.9798 17.2943C81.0501 17.2892 81.0501 17.2943 81.0601 17.3397C81.3414 17.9155 81.5874 18.3801 81.7983 18.7337C82.006 19.0926 82.2746 19.4123 82.5918 19.6781C82.897 19.9439 83.2878 20.0893 83.6916 20.0872C84.0257 20.1003 84.3534 19.9929 84.6156 19.7842C84.7457 19.6525 84.8459 19.494 84.9092 19.3196C84.9725 19.1452 84.9974 18.9591 84.9822 18.7741C84.9894 18.3953 84.8939 18.0216 84.706 17.6932C84.5394 17.3772 84.3164 17.0947 84.0481 16.8599C83.787 16.6478 83.4254 16.3902 82.9684 16.0872C82.6071 15.8596 82.2599 15.61 81.9289 15.3397C81.6752 15.1311 81.4594 14.8799 81.2911 14.5972C81.1129 14.2911 81.0209 13.9419 81.025 13.5871C81.0111 13.1297 81.1628 12.6829 81.4518 12.3295C81.7398 11.9762 82.1158 11.706 82.5416 11.5467C82.9944 11.3842 83.4719 11.3022 83.9527 11.3042C84.2895 11.3043 84.6256 11.3347 84.9571 11.3951C85.235 11.4389 85.5076 11.5117 85.7706 11.6123C85.8367 11.635 85.8945 11.6773 85.9363 11.7335C85.9665 11.7817 85.9805 11.8384 85.9765 11.8952V13.9609C85.9765 13.9912 85.9765 14.0114 85.9112 14.0265C85.8459 14.0417 85.8359 14.0265 85.8258 14.0265L85.7103 13.7588C85.5107 13.2171 85.235 12.7069 84.8918 12.2436C84.7408 12.0411 84.543 11.8786 84.3155 11.7703C84.0879 11.6621 83.8376 11.6113 83.5861 11.6224C83.2501 11.6091 82.9216 11.7246 82.6671 11.9457C82.5427 12.064 82.4447 12.2076 82.3797 12.367C82.3148 12.5263 82.2844 12.6978 82.2905 12.8699C82.2792 13.1917 82.3669 13.5092 82.5416 13.779Z" fill="white"/>
<path d="M94.0617 17.9867C94.0863 17.9796 94.1124 17.9796 94.137 17.9867C94.137 17.9867 94.1722 17.9867 94.1722 18.017C94.084 18.6869 94.0371 19.3616 94.0316 20.0373C94.0385 20.0943 94.0242 20.1519 93.9914 20.1989C93.9689 20.2186 93.9425 20.2333 93.9139 20.242C93.8853 20.2507 93.8553 20.2532 93.8257 20.2494H87.6387C87.6086 20.2494 87.5935 20.2191 87.5935 20.1635C87.5935 20.108 87.5935 20.0827 87.6387 20.0827C87.857 20.0914 88.0753 20.0676 88.2866 20.012C88.3507 19.9901 88.4089 19.9536 88.4568 19.9055C88.5047 19.8573 88.541 19.7987 88.5628 19.7342C88.6174 19.5302 88.6411 19.3191 88.6331 19.108V12.5977C88.6411 12.3883 88.6174 12.1788 88.5628 11.9765C88.5398 11.9124 88.5025 11.8545 88.4537 11.8072C88.405 11.7599 88.3461 11.7245 88.2815 11.7038C88.0726 11.6444 87.8556 11.6189 87.6387 11.628C87.6086 11.628 87.5935 11.5977 87.5935 11.5422C87.5935 11.4866 87.5935 11.4563 87.6387 11.4563H93.5896C93.685 11.4563 93.7302 11.5018 93.7302 11.5826L93.7604 13.4563C93.7604 13.4563 93.7353 13.4917 93.68 13.4967C93.6248 13.5018 93.5997 13.4967 93.5896 13.4715C93.4836 12.9928 93.2178 12.565 92.8364 12.2593C92.4235 11.98 91.9322 11.8419 91.4353 11.8654H91.0184C90.7972 11.8463 90.5768 11.9111 90.4007 12.0472C90.3311 12.1228 90.2777 12.2121 90.244 12.3095C90.2103 12.4068 90.197 12.5101 90.2049 12.6129V15.4816H91.365C91.7978 15.509 92.2296 15.4127 92.6104 15.2038C92.7461 15.1233 92.8581 15.0078 92.9349 14.8694C93.0117 14.7309 93.0504 14.5744 93.0473 14.416C93.0473 14.3856 93.0724 14.3705 93.1226 14.3705C93.1728 14.3705 93.1979 14.3856 93.1979 14.416V15.6786V16.3554C93.1979 16.6736 93.2281 16.9261 93.2281 17.118C93.2281 17.118 93.1979 17.1433 93.1427 17.1433C93.0874 17.1433 93.0573 17.1433 93.0573 17.118C93.0649 16.942 93.029 16.7668 92.9527 16.6081C92.8765 16.4495 92.7623 16.3123 92.6204 16.2089C92.2348 15.9683 91.7818 15.8602 91.3298 15.9008H90.1848V19.0827C90.1675 19.2966 90.2223 19.5101 90.3405 19.6888C90.4022 19.7599 90.4801 19.8149 90.5676 19.8492C90.655 19.8835 90.7494 19.896 90.8427 19.8857H91.3047C91.9138 19.9127 92.5171 19.7561 93.0372 19.4362C93.5065 19.094 93.8478 18.603 94.0064 18.0423C94.0064 18.0423 94.0215 17.9867 94.0617 17.9867Z" fill="white"/>
<path d="M95.5034 13.9606C95.5034 13.9909 95.4632 14.001 95.418 13.996C95.3728 13.9909 95.3477 13.996 95.3477 13.9505C95.3879 13.5717 95.428 13.0869 95.4732 12.4909C95.5184 11.8949 95.5435 11.4505 95.5435 11.1475C95.5435 11.102 95.5686 11.0768 95.6239 11.0768C95.6791 11.0768 95.6992 11.0768 95.6992 11.1475C95.6992 11.3545 95.9654 11.4555 96.4977 11.4555C97.3012 11.4859 98.2353 11.501 99.3099 11.501C99.8573 11.501 100.445 11.501 101.058 11.4707H102.012C102.271 11.4821 102.532 11.4583 102.785 11.4C102.858 11.386 102.925 11.3529 102.981 11.3041C103.036 11.2553 103.078 11.1925 103.101 11.1222C103.101 11.0818 103.142 11.0667 103.192 11.0667C103.242 11.0667 103.267 11.0667 103.267 11.1222C103.242 11.4 103.212 11.8545 103.177 12.4707C103.142 13.0869 103.132 13.5869 103.132 13.9859C103.132 13.9859 103.106 14.0263 103.061 14.0263C103.016 14.0263 102.986 14.0263 102.976 13.9859C102.891 13.3744 102.617 12.8053 102.192 12.3596C102.004 12.1795 101.781 12.0386 101.538 11.945C101.295 11.8514 101.036 11.8069 100.776 11.8141C100.679 11.8019 100.581 11.8115 100.488 11.842C100.395 11.8726 100.31 11.9234 100.239 11.9909C100.131 12.1971 100.085 12.4307 100.108 12.6626V19.1123C100.096 19.3275 100.124 19.5432 100.189 19.7486C100.22 19.8138 100.265 19.8715 100.32 19.9176C100.376 19.9638 100.441 19.9975 100.51 20.0163C100.759 20.072 101.014 20.0958 101.268 20.087C101.299 20.087 101.309 20.1123 101.309 20.1678C101.309 20.2234 101.309 20.2537 101.268 20.2537C100.934 20.2537 100.668 20.2537 100.47 20.2537H99.3099H98.175C97.9791 20.2537 97.708 20.2537 97.3665 20.2537C97.3363 20.2537 97.3213 20.2234 97.3213 20.1678C97.3213 20.1123 97.3213 20.087 97.3665 20.087C97.6178 20.0946 97.8692 20.0709 98.1147 20.0163C98.187 19.9977 98.2543 19.9631 98.3116 19.915C98.369 19.867 98.4149 19.8067 98.4462 19.7385C98.5215 19.5389 98.554 19.3254 98.5416 19.1123V12.597C98.5615 12.3739 98.518 12.1497 98.416 11.9505C98.3493 11.8876 98.27 11.8397 98.1834 11.8101C98.0968 11.7805 98.0049 11.7698 97.9139 11.7788C96.7923 11.7788 95.9888 12.5061 95.5034 13.9606Z" fill="white"/>
<path d="M109.753 13.779C109.926 14.0434 110.142 14.2772 110.391 14.4709C110.642 14.6679 110.983 14.9053 111.395 15.1881C111.782 15.4302 112.156 15.6932 112.515 15.976C112.8 16.2047 113.042 16.4837 113.228 16.7993C113.428 17.1363 113.531 17.5229 113.525 17.9154C113.532 18.3802 113.395 18.8357 113.133 19.2185C112.859 19.6089 112.484 19.9163 112.048 20.1074C111.561 20.3228 111.033 20.4297 110.501 20.4205C110.057 20.4184 109.615 20.3608 109.186 20.2488C108.854 20.1847 108.54 20.0523 108.262 19.8599C108.221 19.83 108.186 19.7943 108.156 19.7539C108.13 19.7043 108.118 19.6483 108.121 19.5922L108.081 17.3548C108.081 17.3195 108.081 17.2993 108.151 17.2942C108.221 17.2892 108.226 17.2942 108.231 17.3397C108.513 17.9154 108.759 18.3801 108.97 18.7336C109.181 19.0916 109.451 19.411 109.768 19.6781C110.071 19.944 110.461 20.0894 110.863 20.0872C111.197 20.1012 111.525 19.9936 111.787 19.7842C111.918 19.6533 112.019 19.4949 112.083 19.3203C112.146 19.1457 112.17 18.9592 112.154 18.774C112.164 18.3948 112.068 18.0203 111.877 17.6932C111.705 17.3912 111.481 17.1226 111.214 16.9003C110.953 16.6881 110.592 16.4306 110.135 16.1275C109.773 15.9 109.426 15.6503 109.095 15.38C108.843 15.1702 108.627 14.9192 108.457 14.6376C108.279 14.3314 108.187 13.9822 108.191 13.6275C108.177 13.1701 108.329 12.7232 108.618 12.3699C108.911 12.0225 109.291 11.7593 109.718 11.6072C110.178 11.42 110.668 11.3174 111.164 11.3042C111.501 11.3043 111.837 11.3347 112.169 11.3951C112.447 11.4389 112.719 11.5117 112.982 11.6123C113.049 11.6334 113.107 11.676 113.148 11.7335C113.18 11.7811 113.196 11.8378 113.193 11.8951V13.9608C113.193 13.9911 113.168 14.0113 113.123 14.0265C113.078 14.0416 113.047 14.0265 113.037 14.0265L112.927 13.7588C112.723 13.2189 112.448 12.7092 112.108 12.2436C111.956 12.0409 111.758 11.8785 111.529 11.7703C111.301 11.6621 111.05 11.6113 110.798 11.6224C110.463 11.6077 110.136 11.7235 109.884 11.9456C109.759 12.0671 109.662 12.2146 109.599 12.3777C109.537 12.5408 109.51 12.7157 109.522 12.8901C109.511 13.2027 109.592 13.5116 109.753 13.779Z" fill="white"/>
<path d="M117.072 19.8098C116.408 19.4115 115.866 18.8365 115.506 18.1482C115.137 17.4448 114.947 16.6605 114.953 15.8653C114.93 14.9783 115.187 14.1066 115.686 13.3753C116.159 12.6974 116.804 12.16 117.554 11.8198C118.286 11.4842 119.081 11.3119 119.885 11.3147C120.703 11.2953 121.511 11.5089 122.215 11.9309C122.868 12.3303 123.401 12.9012 123.756 13.5824C124.114 14.2533 124.3 15.003 124.299 15.7643C124.304 16.596 124.071 17.4116 123.626 18.1128C123.182 18.8236 122.563 19.4066 121.828 19.8048C121.083 20.2231 120.245 20.4438 119.392 20.4462C118.575 20.4538 117.772 20.2335 117.072 19.8098ZM121.261 19.6128C121.699 19.2672 122.03 18.8029 122.215 18.2744C122.466 17.6034 122.585 16.89 122.566 16.1734C122.589 15.3939 122.469 14.6169 122.215 13.8804C121.991 13.2529 121.598 12.7003 121.08 12.2844C120.584 11.8996 119.973 11.6964 119.347 11.7086C118.966 11.6907 118.587 11.7697 118.245 11.9383C117.903 12.1069 117.608 12.3597 117.389 12.6733C116.887 13.4681 116.643 14.3999 116.691 15.34C116.676 16.1735 116.816 17.0024 117.102 17.7845C117.332 18.4332 117.723 19.0122 118.237 19.4664C118.691 19.8599 119.271 20.0752 119.869 20.0724C120.37 20.075 120.859 19.9137 121.261 19.6128Z" fill="white"/>
<path d="M133.621 20.168C133.621 20.2235 133.621 20.2538 133.576 20.2538H131.462C131.382 20.2538 131.216 20.0619 130.96 19.6781C130.647 19.1643 130.364 18.6332 130.111 18.0871C129.776 17.4137 129.467 16.6679 129.182 15.8497C129.085 15.8566 128.988 15.8566 128.891 15.8497C128.459 15.8497 128.168 15.8497 128.022 15.8497V19.1124C128.012 19.3273 128.037 19.5424 128.097 19.7488C128.123 19.8132 128.163 19.8708 128.215 19.9172C128.266 19.9636 128.327 19.9976 128.394 20.0165C128.629 20.0733 128.87 20.0971 129.112 20.0872C129.112 20.0872 129.142 20.1124 129.142 20.168C129.142 20.2235 129.142 20.2538 129.112 20.2538C128.805 20.2538 128.559 20.2538 128.384 20.2538H127.319H126.315C126.127 20.2538 125.876 20.2538 125.561 20.2538C125.531 20.2538 125.516 20.2235 125.516 20.168C125.516 20.1124 125.516 20.0872 125.561 20.0872C125.78 20.0959 125.998 20.072 126.209 20.0165C126.274 19.9945 126.333 19.9581 126.381 19.91C126.43 19.8619 126.467 19.8033 126.49 19.7387C126.55 19.5355 126.575 19.3239 126.566 19.1124V12.5971C126.576 12.3876 126.553 12.1777 126.495 11.9759C126.473 11.9122 126.437 11.8544 126.389 11.8071C126.341 11.7598 126.283 11.7242 126.219 11.7032C126.009 11.6435 125.79 11.618 125.571 11.6274C125.571 11.6274 125.546 11.5971 125.546 11.5416C125.546 11.486 125.546 11.4557 125.571 11.4557H126.315C126.741 11.4557 127.083 11.486 127.319 11.486C127.555 11.486 127.891 11.486 128.218 11.4405L128.615 11.4153C128.78 11.4153 128.971 11.4153 129.197 11.4153C129.898 11.3715 130.596 11.5348 131.206 11.885C131.427 12.0241 131.609 12.2188 131.733 12.4499C131.857 12.681 131.92 12.9406 131.914 13.2032C131.909 13.6738 131.754 14.1304 131.472 14.5063C131.176 14.9133 130.791 15.2467 130.347 15.481C130.873 16.7162 131.512 17.8998 132.255 19.0164C132.758 19.7235 133.215 20.0821 133.576 20.0821C133.606 20.0872 133.621 20.1124 133.621 20.168ZM128.946 15.4962C129.221 15.5098 129.495 15.4561 129.744 15.3396C129.945 15.2317 130.098 15.0512 130.171 14.8345C130.27 14.4866 130.314 14.1254 130.302 13.7638C130.355 13.2113 130.238 12.6557 129.965 12.1729C129.852 12.0273 129.705 11.9117 129.537 11.836C129.369 11.7603 129.185 11.7269 129.001 11.7385C128.735 11.7099 128.467 11.7839 128.253 11.9456C128.172 12.0431 128.111 12.1558 128.074 12.2773C128.037 12.3987 128.024 12.5263 128.037 12.6527V15.4659C128.339 15.4988 128.643 15.5089 128.946 15.4962Z" fill="white"/>
<path d="M143.391 20.168C143.391 20.2235 143.391 20.2538 143.36 20.2538H140.849C140.644 20.2538 140.262 19.8649 139.705 19.0922C138.978 18.0484 138.307 16.966 137.696 15.8497C137.587 15.8564 137.478 15.8564 137.369 15.8497C137.008 15.8497 136.752 15.8497 136.601 15.8497V19.1124C136.592 19.3269 136.616 19.5415 136.671 19.7488C136.693 19.8112 136.729 19.8678 136.776 19.9142C136.823 19.9606 136.88 19.9956 136.943 20.0165C137.156 20.0719 137.375 20.0958 137.595 20.0872C137.595 20.0872 137.625 20.1124 137.625 20.168C137.625 20.2235 137.625 20.2538 137.595 20.2538C137.289 20.2538 137.043 20.2538 136.867 20.2538H135.803H134.798C134.612 20.2538 134.361 20.2538 134.04 20.2538C134.04 20.2538 134 20.2235 134 20.168C134 20.1124 134 20.0872 134.04 20.0872C134.26 20.0961 134.48 20.0723 134.693 20.0165C134.757 19.9945 134.816 19.9581 134.865 19.91C134.914 19.8619 134.951 19.8033 134.974 19.7387C135.033 19.5355 135.059 19.3239 135.049 19.1124V12.5971C135.057 12.3877 135.034 12.1782 134.979 11.9759C134.957 11.9114 134.92 11.8531 134.871 11.8057C134.822 11.7583 134.763 11.7232 134.698 11.7032C134.489 11.6431 134.272 11.6176 134.055 11.6274C134.055 11.6274 134.03 11.5971 134.03 11.5416C134.03 11.486 134.03 11.4557 134.055 11.4557H134.798C135.225 11.4557 135.567 11.486 135.803 11.486C136.039 11.486 136.375 11.486 136.701 11.4405L137.098 11.4153C137.264 11.4153 137.455 11.4153 137.681 11.4153C138.382 11.3715 139.08 11.5348 139.689 11.885C139.911 12.0241 140.093 12.2188 140.217 12.4499C140.341 12.681 140.403 12.9406 140.398 13.2032C140.394 13.6459 140.257 14.0771 140.006 14.4406C139.748 14.8334 139.405 15.1617 139.001 15.4002C139.751 16.5821 140.379 17.5063 140.885 18.173C141.273 18.7141 141.729 19.203 142.241 19.6276C142.565 19.904 142.971 20.0655 143.396 20.0872C143.396 20.0872 143.391 20.1124 143.391 20.168ZM137.415 15.4962C137.689 15.5098 137.963 15.4561 138.213 15.3396C138.414 15.2317 138.566 15.0512 138.64 14.8345C138.738 14.4866 138.782 14.1254 138.77 13.7638C138.824 13.2113 138.706 12.6557 138.434 12.1729C138.32 12.0273 138.173 11.9117 138.005 11.836C137.837 11.7603 137.654 11.7269 137.47 11.7385C137.35 11.7255 137.228 11.7371 137.112 11.7727C136.997 11.8083 136.889 11.8671 136.797 11.9456C136.646 12.1483 136.576 12.4006 136.601 12.6527V15.4659C136.871 15.4967 137.143 15.5069 137.415 15.4962Z" fill="white"/>
<path d="M150.22 17.9867C150.245 17.9803 150.271 17.9803 150.296 17.9867C150.321 17.9867 150.331 17.9867 150.331 18.017C150.24 18.6866 150.193 19.3615 150.19 20.0373C150.195 20.0941 150.181 20.151 150.15 20.1989C150.127 20.219 150.099 20.2339 150.07 20.2427C150.041 20.2514 150.01 20.2537 149.979 20.2494H143.807C143.777 20.2494 143.762 20.2191 143.762 20.1635C143.762 20.108 143.762 20.0827 143.807 20.0827C144.026 20.0914 144.244 20.0676 144.455 20.012C144.519 19.9905 144.577 19.9541 144.624 19.9058C144.671 19.8575 144.706 19.7987 144.726 19.7342C144.783 19.5307 144.807 19.3192 144.797 19.108V12.5977C144.807 12.3882 144.784 12.1783 144.726 11.9765C144.705 11.9124 144.669 11.8542 144.621 11.8068C144.573 11.7595 144.514 11.7241 144.45 11.7038C144.241 11.6444 144.024 11.6189 143.807 11.628C143.777 11.628 143.762 11.5977 143.762 11.5422C143.762 11.4866 143.762 11.4563 143.807 11.4563H149.738C149.834 11.4563 149.879 11.5018 149.879 11.5826L149.904 13.4563C149.904 13.4563 149.879 13.4917 149.829 13.4967C149.778 13.5018 149.748 13.4967 149.738 13.4715C149.63 12.9935 149.365 12.5663 148.985 12.2593C148.57 11.9761 148.075 11.8361 147.574 11.8603H147.152C146.932 11.842 146.714 11.9069 146.539 12.0422C146.47 12.1178 146.416 12.2071 146.383 12.3044C146.349 12.4018 146.335 12.5051 146.343 12.6078V15.4766H147.503C147.936 15.5031 148.368 15.4069 148.749 15.1988C148.884 15.118 148.995 15.0024 149.071 14.8639C149.147 14.7254 149.185 14.569 149.181 14.4109C149.181 14.3806 149.206 14.3654 149.261 14.3654C149.316 14.3654 149.336 14.3654 149.336 14.4109V15.6735V16.3503C149.336 16.6685 149.367 16.921 149.367 17.113C149.367 17.113 149.336 17.1382 149.281 17.1382C149.226 17.1382 149.196 17.1382 149.196 17.113C149.203 16.9364 149.167 16.7608 149.09 16.602C149.012 16.4432 148.897 16.3064 148.754 16.2039C148.379 15.9577 147.935 15.8407 147.488 15.8705H146.343V19.0524C146.329 19.2654 146.381 19.4775 146.494 19.6585C146.556 19.7289 146.634 19.7835 146.722 19.8177C146.809 19.852 146.903 19.8649 146.996 19.8554H147.458C148.072 19.8854 148.681 19.7288 149.206 19.4059C149.674 19.0631 150.013 18.5722 150.17 18.012C150.17 18.012 150.18 17.9867 150.22 17.9867Z" fill="white"/>
<path d="M161.094 11.5413C161.094 11.5968 161.094 11.6271 161.064 11.6271C160.892 11.6192 160.721 11.6559 160.567 11.7338C160.413 11.8116 160.282 11.9279 160.185 12.0716C159.954 12.4221 159.841 12.8384 159.864 13.2585V20.4455C159.864 20.4455 159.839 20.491 159.799 20.5011C159.785 20.509 159.769 20.5132 159.753 20.5132C159.737 20.5132 159.722 20.509 159.708 20.5011L153.145 12.9908V18.4657C153.121 18.8822 153.228 19.2956 153.451 19.6475C153.546 19.7865 153.673 19.8996 153.822 19.9763C153.971 20.053 154.137 20.0911 154.305 20.0869C154.305 20.0869 154.335 20.1122 154.335 20.1677C154.335 20.2233 154.335 20.2536 154.305 20.2536C154.044 20.2536 153.843 20.2536 153.702 20.2536H152.949H152.08C151.924 20.2536 151.693 20.2536 151.397 20.2536C151.367 20.2536 151.352 20.2233 151.352 20.1677C151.352 20.1122 151.352 20.0869 151.397 20.0869C151.581 20.0946 151.765 20.0589 151.933 19.9826C152.102 19.9063 152.25 19.7916 152.366 19.6475C152.622 19.3091 152.748 18.8898 152.723 18.4657V12.511C152.496 12.2406 152.23 12.0057 151.934 11.814C151.729 11.6929 151.495 11.6284 151.256 11.6271C151.256 11.6271 151.226 11.5968 151.226 11.5413C151.226 11.4857 151.226 11.4554 151.256 11.4554H151.844C151.964 11.4554 152.14 11.4554 152.376 11.4554H153.436C153.566 11.4554 153.727 11.4554 153.913 11.4554C153.975 11.4522 154.036 11.4719 154.084 11.511L154.28 11.7534C154.435 11.9706 154.551 12.112 154.616 12.1878L159.457 17.804V13.2585C159.48 12.8366 159.371 12.4179 159.146 12.0615C159.051 11.9234 158.923 11.8114 158.774 11.7355C158.625 11.6597 158.459 11.6224 158.292 11.6271C158.292 11.6271 158.292 11.5968 158.292 11.5413C158.292 11.4857 158.292 11.4554 158.292 11.4554H158.895C159.196 11.4554 159.447 11.4857 159.653 11.4857C159.859 11.4857 160.1 11.4857 160.436 11.4554H161.064C161.064 11.4554 161.094 11.4857 161.094 11.5413Z" fill="white"/>
<path d="M161.946 13.9606C161.946 13.9909 161.906 14.001 161.861 13.996C161.816 13.9909 161.791 13.996 161.791 13.9505C161.826 13.5717 161.871 13.0869 161.916 12.4909C161.961 11.8949 161.987 11.4505 161.987 11.1475C161.987 11.102 162.012 11.0768 162.062 11.0768C162.112 11.0768 162.142 11.0768 162.142 11.1475C162.142 11.3545 162.408 11.4555 162.941 11.4555C163.739 11.4859 164.678 11.501 165.753 11.501C166.302 11.501 166.885 11.4909 167.501 11.4707H168.45C168.711 11.4823 168.973 11.4585 169.228 11.4C169.301 11.386 169.368 11.3529 169.424 11.3041C169.479 11.2553 169.521 11.1925 169.544 11.1222C169.544 11.0818 169.585 11.0667 169.635 11.0667C169.685 11.0667 169.71 11.0667 169.71 11.1222C169.685 11.4 169.655 11.8545 169.62 12.4707C169.585 13.0869 169.57 13.5869 169.57 13.9859C169.57 13.9859 169.57 14.0263 169.499 14.0263C169.429 14.0263 169.429 14.0263 169.419 13.9859C169.334 13.3744 169.06 12.8053 168.635 12.3596C168.447 12.1795 168.224 12.0386 167.981 11.945C167.738 11.8514 167.479 11.8069 167.219 11.8141C167.122 11.8012 167.024 11.8104 166.931 11.841C166.838 11.8716 166.753 11.9228 166.682 11.9909C166.574 12.1971 166.528 12.4307 166.551 12.6626V19.1123C166.54 19.3275 166.567 19.5432 166.632 19.7486C166.663 19.8138 166.708 19.8715 166.764 19.9176C166.819 19.9638 166.884 19.9975 166.953 20.0163C167.202 20.072 167.457 20.0958 167.711 20.087C167.711 20.087 167.752 20.1123 167.752 20.1678C167.752 20.2234 167.752 20.2537 167.711 20.2537C167.377 20.2537 167.111 20.2537 166.913 20.2537H165.753H164.618C164.424 20.2537 164.153 20.2537 163.804 20.2537C163.779 20.2537 163.764 20.2234 163.764 20.1678C163.764 20.1123 163.764 20.087 163.804 20.087C164.056 20.095 164.307 20.0712 164.553 20.0163C164.626 19.9984 164.694 19.9641 164.752 19.916C164.811 19.8679 164.857 19.8073 164.889 19.7385C164.96 19.5378 164.991 19.325 164.98 19.1123V12.597C165.002 12.3738 164.958 12.1489 164.854 11.9505C164.788 11.8865 164.709 11.8379 164.622 11.8082C164.535 11.7785 164.443 11.7685 164.352 11.7788C163.234 11.7788 162.432 12.5061 161.946 13.9606Z" fill="white"/>
<path d="M172.782 19.8096C172.116 19.4142 171.573 18.8384 171.215 18.1479C170.844 17.4454 170.654 16.6605 170.663 15.8651C170.636 14.9783 170.891 14.106 171.391 13.3751C171.861 12.6951 172.507 12.1572 173.259 11.8195C173.99 11.4836 174.785 11.3112 175.589 11.3145C176.411 11.2969 177.221 11.514 177.925 11.9407C178.574 12.3387 179.105 12.9058 179.461 13.5822C179.815 14.2544 179.999 15.0035 179.999 15.7641C180.006 16.5961 179.773 17.4123 179.326 18.1126C178.883 18.8246 178.264 19.4079 177.528 19.8045C176.786 20.2239 175.949 20.4448 175.097 20.446C174.282 20.4537 173.48 20.2334 172.782 19.8096ZM176.965 19.6126C177.416 19.2717 177.76 18.8069 177.955 18.2742C178.201 17.6021 178.318 16.8892 178.301 16.1732C178.314 15.3827 178.181 14.5968 177.909 13.8549C177.686 13.2287 177.295 12.6766 176.78 12.2589C176.282 11.8744 175.669 11.6714 175.042 11.6832C174.661 11.6652 174.282 11.7442 173.94 11.9128C173.597 12.0814 173.303 12.3343 173.083 12.6478C172.582 13.4515 172.343 14.3928 172.401 15.3398C172.386 16.1733 172.526 17.0022 172.812 17.7843C173.039 18.4319 173.426 19.0108 173.937 19.4661C174.391 19.8597 174.97 20.075 175.569 20.0722C176.067 20.0726 176.551 19.9114 176.95 19.6126H176.965Z" fill="white"/>
<path d="M92.8708 32.7489C92.8708 32.7792 92.8708 32.7943 92.8708 32.7943H91.5802C91.4547 32.7943 91.2287 32.5721 90.8922 32.1226C90.5558 31.6731 90.149 31.0468 89.6719 30.2387C89.5834 30.2462 89.4943 30.2462 89.4058 30.2387H88.989V32.1276C88.9828 32.2506 88.9981 32.3737 89.0342 32.4913C89.0475 32.5281 89.0696 32.5612 89.0985 32.5876C89.1273 32.614 89.1621 32.6329 89.1999 32.6428C89.3298 32.6739 89.4632 32.6875 89.5966 32.6832C89.5966 32.6832 89.5966 32.6832 89.5966 32.7337C89.5966 32.7842 89.5966 32.7792 89.5966 32.7792H89.1898H88.5923H88.0147H87.5628C87.5628 32.7792 87.5628 32.7792 87.5628 32.7337C87.5628 32.6883 87.5628 32.6832 87.5628 32.6832C87.6962 32.6883 87.8298 32.6747 87.9595 32.6428C87.9986 32.6316 88.0347 32.6118 88.0651 32.5846C88.0955 32.5575 88.1195 32.5239 88.1353 32.4862C88.1705 32.3702 88.1858 32.2489 88.1805 32.1276V28.3902C88.1849 28.271 88.1713 28.1518 88.1403 28.0367C88.1242 27.9992 88.1001 27.9657 88.0698 27.9387C88.0394 27.9116 88.0035 27.8916 87.9645 27.8801C87.8371 27.8444 87.705 27.829 87.5728 27.8346C87.5728 27.8346 87.5728 27.8346 87.5728 27.7841C87.5728 27.7336 87.5728 27.7387 87.5728 27.7387H87.9896H88.5571C88.7178 27.7387 88.8885 27.7387 89.0593 27.7387H89.2903H89.5916C89.9751 27.7138 90.357 27.8072 90.6864 28.0064C90.8103 28.0859 90.9113 28.1969 90.9792 28.3281C91.047 28.4593 91.0794 28.6061 91.073 28.7539C91.0722 29.0105 90.9934 29.2608 90.847 29.471C90.6994 29.6987 90.4996 29.8875 90.2645 30.0216C90.7014 30.6983 91.068 31.2286 91.3643 31.6175C91.5928 31.9279 91.8594 32.2079 92.1577 32.4509C92.3481 32.6083 92.5844 32.6987 92.8307 32.7085C92.8307 32.7085 92.8708 32.7135 92.8708 32.7489ZM89.4259 30.0418C89.548 30.0544 89.6715 30.0412 89.7883 30.0029C89.905 29.9646 90.0125 29.9022 90.1038 29.8195C90.2562 29.5833 90.3236 29.3017 90.2946 29.0215C90.3273 28.7042 90.2511 28.3853 90.0787 28.1175C90.0027 28.0306 89.908 27.9623 89.8019 27.9177C89.6958 27.873 89.5809 27.8533 89.466 27.8599C89.3926 27.8589 89.3196 27.8727 89.2515 27.9005C89.1834 27.9282 89.1214 27.9694 89.0693 28.0215C88.985 28.1458 88.9476 28.2962 88.9639 28.4458V30.0418C89.1176 30.054 89.2721 30.054 89.4259 30.0418Z" fill="white"/>
<path d="M97.5308 31.5213H97.576C97.5242 31.8928 97.4974 32.2674 97.4956 32.6426C97.5056 32.6738 97.5056 32.7073 97.4956 32.7385C97.4647 32.7493 97.4311 32.7493 97.4002 32.7385H93.9151C93.9151 32.7385 93.9151 32.7385 93.9151 32.6931C93.9151 32.6476 93.9151 32.6426 93.9151 32.6426C94.0502 32.6473 94.1853 32.6337 94.3168 32.6022C94.3546 32.5906 94.3892 32.5705 94.4179 32.5434C94.4466 32.5162 94.4688 32.4828 94.4825 32.4456C94.5178 32.3295 94.5331 32.2082 94.5277 32.087V28.3495C94.5336 28.2299 94.5183 28.1102 94.4825 27.996C94.4676 27.9587 94.4445 27.9252 94.4149 27.8981C94.3854 27.871 94.3501 27.8509 94.3118 27.8394C94.1827 27.8034 94.0489 27.7881 93.9151 27.794C93.9151 27.794 93.9151 27.794 93.9151 27.7435C93.9151 27.693 93.9151 27.698 93.9151 27.698H97.2546C97.3098 27.698 97.3349 27.698 97.3349 27.7687V28.8193C97.3349 28.8193 97.3349 28.8193 97.2897 28.8193C97.2445 28.8193 97.2445 28.8193 97.2395 28.8193C97.2091 28.5503 97.0757 28.3038 96.8675 28.1322C96.6594 27.9606 96.3929 27.8773 96.1247 27.9H95.8033C95.6595 27.8865 95.5156 27.924 95.3965 28.0061C95.3521 28.0527 95.3183 28.1085 95.2975 28.1695C95.2767 28.2306 95.2693 28.2954 95.276 28.3596V30.0061H96.0443C96.6319 30.0061 96.9282 29.8092 96.9282 29.4102C96.9282 29.4102 96.9282 29.3849 96.9734 29.3849C97.0186 29.3849 97.0135 29.3849 97.0135 29.4102V30.5466C97.0135 30.7183 97.0135 30.8597 97.0135 30.9658C97.0135 30.9658 97.0135 30.9658 96.9633 30.9658C96.9131 30.9658 96.9131 30.9658 96.9131 30.9658C96.9131 30.5062 96.6168 30.2738 96.0142 30.2738H95.2559V32.1021C95.2474 32.168 95.2519 32.2349 95.2691 32.2991C95.2863 32.3632 95.316 32.4233 95.3563 32.4759C95.4573 32.5558 95.5849 32.5938 95.7129 32.5819H96.1046C96.4218 32.6127 96.7391 32.5253 96.9965 32.3363C97.2538 32.1473 97.4332 31.8699 97.5007 31.5567C97.5007 31.5567 97.5107 31.5213 97.5308 31.5213Z" fill="white"/>
<path d="M100.233 29.1377C100.338 29.2921 100.469 29.4271 100.62 29.5367C100.765 29.6478 100.966 29.7842 101.217 29.9407C101.468 30.0973 101.72 30.2589 101.865 30.3852C102.026 30.5107 102.162 30.6648 102.267 30.8397C102.377 31.0314 102.433 31.2498 102.428 31.4711C102.431 31.7324 102.358 31.989 102.217 32.2085C102.067 32.4305 101.858 32.6056 101.614 32.7135C101.336 32.8391 101.035 32.9012 100.73 32.8953C100.495 32.8933 100.261 32.8645 100.032 32.8095C99.8419 32.7691 99.66 32.6956 99.4949 32.5923C99.47 32.5746 99.4497 32.5511 99.4358 32.5238C99.4218 32.4966 99.4145 32.4664 99.4145 32.4357L99.3643 31.2084C99.3642 31.2033 99.3653 31.1983 99.3674 31.1936C99.3694 31.189 99.3725 31.1848 99.3763 31.1815C99.3801 31.1781 99.3846 31.1756 99.3895 31.1742C99.3943 31.1727 99.3994 31.1724 99.4045 31.1731C99.4116 31.1673 99.4204 31.1642 99.4296 31.1642C99.4387 31.1642 99.4476 31.1673 99.4547 31.1731C99.601 31.5677 99.8041 31.9387 100.057 32.2741C100.16 32.4088 100.292 32.5174 100.444 32.5911C100.596 32.6648 100.763 32.7015 100.931 32.6984C101.139 32.7057 101.344 32.6396 101.509 32.5115C101.593 32.43 101.657 32.3304 101.697 32.2201C101.737 32.1099 101.752 31.9919 101.74 31.8751C101.746 31.6576 101.692 31.4426 101.584 31.2539C101.483 31.0836 101.352 30.9331 101.197 30.8094C101.047 30.6933 100.836 30.5468 100.575 30.3751C100.313 30.2034 100.118 30.067 99.9719 29.9508C99.8267 29.8313 99.7028 29.6879 99.6053 29.5266C99.5023 29.3453 99.4503 29.1393 99.4547 28.9306C99.4465 28.6749 99.5283 28.4245 99.6857 28.2235C99.8446 28.0253 100.055 27.875 100.293 27.7892C100.542 27.6938 100.806 27.6458 101.072 27.6478C101.255 27.6493 101.438 27.6662 101.619 27.6983C101.776 27.7259 101.929 27.7717 102.076 27.8346C102.114 27.8421 102.148 27.8637 102.171 27.8952C102.179 27.925 102.179 27.9564 102.171 27.9862L102.197 29.0872C102.197 29.0872 102.197 29.0872 102.151 29.1225C102.106 29.1579 102.106 29.1225 102.101 29.1225C101.998 28.8062 101.853 28.5055 101.669 28.2286C101.581 28.0976 101.461 27.9919 101.32 27.9219C101.179 27.8519 101.023 27.8201 100.866 27.8296C100.76 27.8245 100.655 27.8407 100.556 27.8771C100.457 27.9135 100.366 27.9695 100.288 28.0417C100.216 28.117 100.16 28.2066 100.123 28.3048C100.087 28.4031 100.071 28.5078 100.077 28.6124C100.077 28.7991 100.131 28.9817 100.233 29.1377Z" fill="white"/>
<path d="M104.523 28.2238C104.275 28.4785 104.102 28.7963 104.021 29.143C104.021 29.143 104.021 29.143 103.975 29.143C103.93 29.143 103.93 29.143 103.93 29.143C103.93 28.9309 103.975 28.638 104 28.3299C104.026 28.0218 104.041 27.7541 104.041 27.5875C104.041 27.5571 104.041 27.547 104.086 27.547C104.131 27.547 104.131 27.547 104.131 27.5875C104.131 27.7036 104.282 27.7642 104.578 27.7642C105.04 27.7642 105.582 27.7642 106.195 27.7642H107.199H107.747C107.897 27.7686 108.047 27.755 108.194 27.7238C108.234 27.7132 108.272 27.6929 108.303 27.6649C108.335 27.6368 108.359 27.6016 108.375 27.5622C108.375 27.5569 108.377 27.5517 108.379 27.5471C108.382 27.5424 108.386 27.5383 108.39 27.535C108.394 27.5317 108.399 27.5293 108.404 27.5279C108.409 27.5265 108.414 27.5261 108.42 27.5268C108.445 27.5268 108.46 27.5268 108.46 27.5622C108.46 27.7305 108.445 27.9831 108.415 28.3198C108.415 28.6582 108.39 28.9309 108.39 29.143C108.39 29.143 108.39 29.143 108.344 29.143C108.299 29.143 108.299 29.143 108.294 29.143C108.274 28.8045 108.141 28.4826 107.918 28.2289C107.761 28.0984 107.576 28.0071 107.378 27.9623C107.18 27.9175 106.974 27.9206 106.778 27.9713C106.745 27.9835 106.716 28.0024 106.692 28.0267C106.668 28.0511 106.649 28.0804 106.637 28.1127C106.608 28.2162 106.597 28.3236 106.602 28.4309V32.1532C106.596 32.2761 106.611 32.3992 106.647 32.5168C106.665 32.5553 106.691 32.589 106.725 32.6153C106.758 32.6416 106.796 32.6598 106.838 32.6684C106.99 32.6997 107.145 32.7133 107.3 32.7088C107.3 32.7088 107.3 32.7088 107.3 32.7593C107.3 32.8098 107.3 32.8047 107.3 32.8047H106.858H106.2H105.572H105.14C105.14 32.8047 105.14 32.8047 105.14 32.7593C105.14 32.7138 105.14 32.7088 105.14 32.7088C105.295 32.7133 105.451 32.6997 105.602 32.6684C105.646 32.6596 105.686 32.6409 105.721 32.6137C105.756 32.5866 105.784 32.5517 105.803 32.5118C105.845 32.3972 105.864 32.2752 105.859 32.1532V28.4157C105.863 28.3115 105.849 28.2073 105.818 28.1077C105.788 28.0456 105.736 27.997 105.673 27.9713C105.569 27.9404 105.46 27.9268 105.351 27.9309C105.201 27.9216 105.05 27.9428 104.908 27.9931C104.765 28.0434 104.634 28.1218 104.523 28.2238Z" fill="white"/>
<path d="M114.757 32.7485C114.757 32.7788 114.757 32.794 114.717 32.794H114.215H113.713H113.241H112.814C112.814 32.794 112.784 32.794 112.784 32.7485C112.784 32.7031 112.784 32.698 112.814 32.698C112.93 32.7056 113.046 32.6884 113.155 32.6475C113.19 32.633 113.219 32.6083 113.238 32.5767C113.258 32.545 113.268 32.5081 113.266 32.4707C113.261 32.33 113.23 32.1913 113.176 32.0616L112.307 30.2939H110.855L110.238 31.6879C110.173 31.8256 110.137 31.9751 110.132 32.1273C110.129 32.2091 110.146 32.2904 110.181 32.3644C110.216 32.4383 110.268 32.5025 110.333 32.5516C110.501 32.6577 110.698 32.7089 110.896 32.698C110.921 32.698 110.936 32.698 110.936 32.7485C110.936 32.799 110.936 32.794 110.896 32.794H110.479H109.947H109.444H109.017C108.992 32.794 108.977 32.794 108.977 32.7485C108.977 32.7031 108.977 32.698 109.017 32.698C109.149 32.7027 109.279 32.6713 109.394 32.6071C109.518 32.5279 109.62 32.4185 109.69 32.2889C109.821 32.0696 109.936 31.8418 110.037 31.6071L111.759 27.703C111.769 27.6936 111.781 27.6864 111.794 27.6821C111.807 27.6777 111.821 27.6762 111.835 27.6777C111.847 27.6758 111.859 27.6772 111.871 27.6816C111.882 27.686 111.892 27.6934 111.9 27.703L113.864 31.6879C113.987 31.9716 114.144 32.2395 114.331 32.4859C114.379 32.549 114.44 32.6006 114.511 32.6373C114.581 32.6739 114.658 32.6947 114.737 32.698C114.742 32.698 114.757 32.7132 114.757 32.7485ZM110.921 30.0919H112.171L111.503 28.7383L110.921 30.0919Z" fill="white"/>
<path d="M119.631 28.0825C119.565 28.0037 119.482 27.9416 119.387 27.9012C119.293 27.8609 119.191 27.8434 119.089 27.8501C119.089 27.8501 119.089 27.8501 119.089 27.7996C119.089 27.7491 119.089 27.7542 119.089 27.7542H119.455H119.958H120.394H120.746C120.746 27.7542 120.746 27.7542 120.746 27.7996C120.746 27.8451 120.746 27.8501 120.746 27.8501C120.65 27.8426 120.553 27.86 120.465 27.9006C120.377 27.9413 120.301 28.0039 120.244 28.0825C120.118 28.2772 120.058 28.5074 120.073 28.739V30.9966C120.082 31.3494 119.997 31.6983 119.827 32.0068C119.668 32.2923 119.429 32.5242 119.139 32.6734C118.819 32.8363 118.463 32.9178 118.104 32.9108C117.745 32.9158 117.389 32.8363 117.065 32.6785C116.767 32.5337 116.519 32.3034 116.352 32.0169C116.18 31.7086 116.094 31.3599 116.101 31.0067V28.4057C116.108 28.2856 116.091 28.1653 116.051 28.0522C116.036 28.0148 116.013 27.9814 115.983 27.9543C115.953 27.9272 115.918 27.9071 115.88 27.8956C115.754 27.8594 115.624 27.844 115.493 27.8501C115.493 27.8501 115.468 27.8501 115.468 27.7996C115.468 27.7491 115.468 27.7542 115.493 27.7542H115.91H116.477H117.07H117.472C117.472 27.7542 117.497 27.7542 117.497 27.7996C117.497 27.8451 117.497 27.8501 117.472 27.8501C117.341 27.844 117.211 27.8594 117.085 27.8956C117.007 27.9256 116.944 27.9855 116.909 28.0623C116.874 28.1783 116.859 28.2996 116.864 28.4208V30.7239C116.825 31.2325 116.965 31.7386 117.261 32.1532C117.397 32.3125 117.568 32.4382 117.761 32.5205C117.953 32.6028 118.162 32.6396 118.371 32.628C118.569 32.6387 118.767 32.6064 118.951 32.5331C119.136 32.4599 119.303 32.3476 119.44 32.2037C119.714 31.8678 119.85 31.44 119.822 31.0067V28.739C119.836 28.5045 119.769 28.2723 119.631 28.0825Z" fill="white"/>
<path d="M127.297 32.7491C127.297 32.7794 127.297 32.7945 127.272 32.7945H125.981C125.86 32.7945 125.629 32.5723 125.298 32.1228C124.967 31.6733 124.555 31.047 124.073 30.2389C123.984 30.2467 123.895 30.2467 123.806 30.2389H123.39V32.1279C123.384 32.2508 123.399 32.3739 123.435 32.4915C123.449 32.5287 123.472 32.5619 123.502 32.5883C123.531 32.6147 123.567 32.6335 123.606 32.643C123.735 32.6749 123.869 32.6885 124.002 32.6834C124.002 32.6834 124.002 32.6834 124.002 32.7339C124.002 32.7844 124.002 32.7794 124.002 32.7794H123.591H122.998H122.42H122.004C122.004 32.7794 121.979 32.7794 121.979 32.7339C121.979 32.6885 121.979 32.6834 122.004 32.6834C122.137 32.6877 122.27 32.6741 122.4 32.643C122.439 32.6315 122.474 32.6114 122.504 32.5843C122.533 32.5572 122.556 32.5238 122.571 32.4864C122.611 32.3714 122.628 32.2495 122.621 32.1279V28.3904C122.627 28.2708 122.612 28.1511 122.576 28.0369C122.561 27.9996 122.538 27.9661 122.509 27.939C122.479 27.9119 122.444 27.8918 122.405 27.8803C122.276 27.8443 122.142 27.829 122.009 27.8349C122.009 27.8349 122.009 27.8349 122.009 27.7843C122.009 27.7338 122.009 27.7389 122.009 27.7389H122.425H122.998C123.159 27.7389 123.324 27.7389 123.5 27.7389H123.731H124.027C124.413 27.7133 124.796 27.8067 125.127 28.0066C125.25 28.0869 125.351 28.198 125.419 28.329C125.486 28.46 125.519 28.6065 125.514 28.7541C125.513 29.0107 125.434 29.261 125.288 29.4712C125.143 29.6914 124.951 29.876 124.725 30.0117C125.167 30.6884 125.534 31.2187 125.83 31.6076C126.056 31.9188 126.321 32.199 126.619 32.441C126.81 32.5974 127.046 32.6877 127.292 32.6986C127.292 32.6986 127.297 32.7137 127.297 32.7491ZM123.857 30.042C123.978 30.0552 124.101 30.0422 124.217 30.0039C124.333 29.9655 124.44 29.9028 124.53 29.8197C124.684 29.5879 124.753 29.3094 124.725 29.0318C124.758 28.7145 124.682 28.3956 124.51 28.1278C124.435 28.041 124.341 27.9727 124.235 27.928C124.13 27.8834 124.016 27.8636 123.902 27.8702C123.76 27.8548 123.617 27.8965 123.505 27.9864C123.417 28.1087 123.377 28.2603 123.395 28.4106V30.042C123.548 30.0537 123.703 30.0537 123.857 30.042Z" fill="white"/>
<path d="M133.761 32.7488C133.761 32.7791 133.761 32.7943 133.721 32.7943H133.219H132.717H132.245H131.818C131.818 32.7943 131.788 32.7943 131.788 32.7488C131.788 32.7034 131.788 32.6983 131.818 32.6983C131.934 32.7053 132.05 32.6881 132.159 32.6478C132.193 32.6325 132.22 32.6075 132.239 32.5759C132.258 32.5443 132.267 32.5078 132.265 32.471C132.245 32.3273 132.199 32.1885 132.129 32.0619L131.265 30.2942H129.809L129.191 31.6882C129.13 31.8269 129.096 31.976 129.091 32.1276C129.088 32.2094 129.104 32.2907 129.139 32.3646C129.174 32.4385 129.227 32.5028 129.292 32.5518C129.458 32.6579 129.653 32.7091 129.849 32.6983C129.879 32.6983 129.889 32.6983 129.889 32.7488C129.889 32.7993 129.889 32.7943 129.849 32.7943H129.432H128.93H128.428H128.006C127.976 32.7943 127.966 32.7943 127.966 32.7488C127.966 32.7034 127.966 32.6983 128.006 32.6983C128.138 32.7018 128.267 32.6704 128.383 32.6074C128.507 32.5282 128.609 32.4187 128.679 32.2892C128.809 32.0699 128.925 31.8421 129.026 31.6074L130.748 27.7033C130.757 27.694 130.768 27.6869 130.78 27.6825C130.793 27.6781 130.806 27.6766 130.818 27.678C130.859 27.678 130.879 27.678 130.884 27.7033L132.852 31.6882C132.976 31.9719 133.133 32.2398 133.319 32.4862C133.368 32.5493 133.429 32.6009 133.499 32.6376C133.57 32.6742 133.647 32.6949 133.726 32.6983C133.731 32.6983 133.761 32.7135 133.761 32.7488ZM129.925 30.0922H131.19L130.527 28.7386L129.925 30.0922Z" fill="white"/>
<path d="M140.291 27.7996C140.291 27.835 140.291 27.8501 140.291 27.8501C140.195 27.8439 140.099 27.8613 140.012 27.9009C139.924 27.9406 139.848 28.0011 139.789 28.0774C139.661 28.2731 139.599 28.5052 139.613 28.739V32.9108C139.613 32.9108 139.613 32.9108 139.573 32.9411C139.564 32.9456 139.555 32.9479 139.545 32.9479C139.536 32.9479 139.526 32.9456 139.517 32.9411L135.751 28.5471V31.83C135.738 32.0599 135.798 32.288 135.922 32.4815C135.98 32.5588 136.056 32.6202 136.144 32.6599C136.232 32.6996 136.328 32.7164 136.424 32.7088C136.424 32.7088 136.424 32.7088 136.424 32.7593C136.424 32.8098 136.424 32.8048 136.424 32.8048H136.098H135.671H135.199H134.767C134.767 32.8048 134.767 32.8048 134.767 32.7593C134.767 32.7138 134.767 32.7088 134.767 32.7088C134.868 32.7146 134.969 32.6971 135.062 32.6577C135.155 32.6184 135.238 32.5581 135.304 32.4815C135.439 32.2924 135.505 32.0622 135.49 31.83V28.2946C135.374 28.1614 135.239 28.0473 135.088 27.9562C134.973 27.8927 134.843 27.8597 134.712 27.8602C134.712 27.8602 134.712 27.8602 134.712 27.8097C134.712 27.7592 134.712 27.7643 134.712 27.7643H135.033H135.329H135.831H136.062C136.097 27.7618 136.131 27.7726 136.158 27.7946C136.194 27.835 136.226 27.879 136.253 27.9259C136.344 28.0471 136.414 28.133 136.454 28.1835L139.337 31.6027V28.739C139.352 28.5058 139.292 28.2737 139.166 28.0774C139.109 27.9994 139.032 27.9375 138.944 27.8977C138.856 27.8579 138.76 27.8415 138.664 27.8501C138.664 27.8501 138.664 27.8501 138.664 27.7996C138.664 27.7491 138.664 27.7542 138.664 27.7542H138.995H139.422H139.854H140.205C140.205 27.7542 140.291 27.7693 140.291 27.7996Z" fill="white"/>
<path d="M142.07 28.2238C141.822 28.4785 141.648 28.7963 141.567 29.143C141.567 29.143 141.567 29.143 141.522 29.143C141.477 29.143 141.477 29.143 141.477 29.143C141.477 28.9309 141.522 28.638 141.547 28.3299C141.572 28.0218 141.588 27.7541 141.588 27.5875C141.588 27.5571 141.588 27.547 141.633 27.547C141.678 27.547 141.678 27.547 141.678 27.5875C141.678 27.7036 141.829 27.7642 142.125 27.7642C142.587 27.7642 143.129 27.7642 143.742 27.7642H144.746H145.314C145.464 27.7686 145.614 27.755 145.761 27.7238C145.801 27.7132 145.839 27.6929 145.87 27.6649C145.902 27.6368 145.926 27.6016 145.941 27.5622C145.942 27.5569 145.944 27.5517 145.946 27.5471C145.949 27.5424 145.952 27.5383 145.957 27.535C145.961 27.5317 145.966 27.5293 145.971 27.5279C145.976 27.5265 145.981 27.5261 145.987 27.5268C146.012 27.5268 146.027 27.5268 146.027 27.5622C146.027 27.7305 146.012 27.9831 145.982 28.3198C145.982 28.6582 145.956 28.9309 145.956 29.143C145.956 29.143 145.956 29.143 145.911 29.143C145.866 29.143 145.866 29.143 145.861 29.143C145.841 28.8045 145.708 28.4826 145.484 28.2289C145.328 28.0984 145.143 28.0071 144.945 27.9623C144.747 27.9175 144.541 27.9206 144.344 27.9713C144.312 27.9829 144.283 28.0015 144.258 28.026C144.234 28.0505 144.215 28.0801 144.204 28.1127C144.174 28.2159 144.16 28.3234 144.164 28.4309V32.1532C144.158 32.2765 144.175 32.3997 144.214 32.5168C144.231 32.5558 144.257 32.5899 144.291 32.6163C144.324 32.6427 144.363 32.6606 144.405 32.6684C144.557 32.6997 144.712 32.7133 144.867 32.7088C144.867 32.7088 144.867 32.7088 144.867 32.7593C144.867 32.8098 144.867 32.8047 144.867 32.8047H144.425H143.767H143.139H142.672C142.672 32.8047 142.672 32.8047 142.672 32.7593C142.672 32.7138 142.672 32.7088 142.672 32.7088C142.827 32.7133 142.982 32.6997 143.134 32.6684C143.177 32.6596 143.218 32.6409 143.253 32.6137C143.288 32.5866 143.316 32.5517 143.335 32.5118C143.377 32.3972 143.396 32.2752 143.39 32.1532V28.4157C143.395 28.3115 143.381 28.2073 143.35 28.1077C143.32 28.0456 143.268 27.997 143.205 27.9713C143.1 27.9404 142.992 27.9268 142.883 27.9309C142.584 27.9163 142.291 28.0216 142.07 28.2238Z" fill="white"/>
<path d="M24.6692 17.5908C24.701 17.0935 24.7649 16.5988 24.8605 16.1098C24.9396 15.6913 25.0413 15.2775 25.1654 14.8703C25.2994 14.3533 25.4886 13.8524 25.7298 13.3763C26.2961 12.2597 27.1316 11.3036 28.1599 10.5953C29.1882 9.887 30.3766 9.44913 31.6165 9.32168H31.6392H31.7592C33.4762 9.15877 35.0824 8.39719 36.2999 7.16879C36.5426 6.92038 36.768 6.65554 36.9746 6.37613C36.6305 7.63658 36.1622 8.85934 35.5767 10.0263C35.3626 10.4503 35.1323 10.8711 34.8858 11.2821C34.6393 11.6931 34.4253 12.0193 34.1755 12.3814C33.5219 13.3131 32.7894 14.1862 31.9862 14.991C31.4928 15.4852 30.9743 15.9534 30.4327 16.3936C31.4607 16.2144 32.4607 15.8996 33.4068 15.4574C31.6005 17.2383 29.2753 18.3916 26.7709 18.7487C26.5147 18.7879 26.2584 18.8172 25.999 18.8368C25.9697 17.8177 26.1473 16.8032 26.5209 15.8554C26.8946 14.9075 27.4564 14.0463 28.172 13.3241C28.4539 13.0416 28.7575 12.782 29.0802 12.5478C27.3803 13.2395 25.9943 14.5382 25.1881 16.1946C25.0908 16.3903 25.0032 16.5926 24.9254 16.7948C24.8263 17.0555 24.7408 17.3212 24.6692 17.5908ZM6.52893 37.6388C6.73592 37.3638 6.96132 37.1033 7.20355 36.8591C8.42107 35.6307 10.0273 34.8692 11.7443 34.7063H11.8643H11.887C13.1281 34.5787 14.3176 34.1401 15.3466 33.4306C16.3756 32.7211 17.2112 31.7634 17.777 30.6451C18.0177 30.1711 18.2069 29.6724 18.3413 29.1577C18.4654 28.7504 18.5672 28.3366 18.6462 27.9181C18.7422 27.4259 18.8062 26.928 18.8376 26.4274C18.7681 26.6898 18.6837 26.9479 18.5846 27.2005C18.5067 27.4027 18.4192 27.605 18.3219 27.8007C17.5157 29.4571 16.1297 30.7558 14.4298 31.4476C14.7525 31.2133 15.0561 30.9537 15.338 30.6712C16.0526 29.9509 16.6141 29.0918 16.9882 28.1464C17.3623 27.2009 17.5413 26.1888 17.5143 25.1715C17.2548 25.1911 16.9986 25.2205 16.7423 25.2596C14.2384 25.6217 11.9147 26.7782 10.1096 28.5607C11.0506 28.1118 12.0462 27.7893 13.0708 27.6017C11.6434 28.7621 10.3837 30.1169 9.32797 31.627C9.07823 31.989 8.84146 32.3544 8.61767 32.7262C8.39388 33.0981 8.14089 33.558 7.92683 33.9821C7.34091 35.1511 6.87262 36.3761 6.52893 37.6388ZM6.20459 6.69907C6.47801 6.90725 6.737 7.13394 6.97976 7.37756C8.20116 8.60204 8.95841 10.2175 9.12039 11.9443V12.065V12.0846C9.2481 13.3325 9.68494 14.5284 10.3909 15.5627C11.0969 16.597 12.0496 17.4367 13.1616 18.005C13.635 18.2475 14.1331 18.4378 14.6471 18.5726C15.0521 18.6974 15.4635 18.7998 15.8796 18.8792C16.369 18.9758 16.8641 19.0401 17.3618 19.0717C17.0934 19.0022 16.8292 18.9173 16.5704 18.8172C16.3694 18.739 16.1683 18.6509 15.9737 18.553C14.3266 17.7422 13.0353 16.3483 12.3476 14.6387C12.5805 14.9632 12.8386 15.2686 13.1195 15.552C13.8376 16.2728 14.6944 16.8386 15.6374 17.215C16.5805 17.5913 17.5899 17.7702 18.604 17.7408C18.5846 17.4798 18.5554 17.2221 18.5165 16.9645C18.1607 14.4469 17.014 12.1095 15.2439 10.2937C15.6903 11.2401 16.0109 12.2414 16.1975 13.2719C15.7605 12.7276 15.295 12.2071 14.8028 11.7127C14.0035 10.903 13.1353 10.1652 12.2081 9.50762C11.8481 9.25644 11.4848 9.01832 11.1151 8.79325C10.7453 8.56817 10.288 8.31374 9.86637 8.09845C8.70609 7.50958 7.49029 7.03861 6.23703 6.69254L6.20459 6.69907ZM27.2866 26.597C26.5147 26.3593 25.7096 26.2491 24.9027 26.2708C24.9222 26.5318 24.9513 26.7895 24.9903 27.0472C25.349 29.5678 26.499 31.9073 28.2726 33.7244C27.8262 32.7781 27.5056 31.7767 27.319 30.7462C27.7568 31.2909 28.2223 31.8125 28.7137 32.3087C29.5139 33.1164 30.382 33.8531 31.3084 34.5105C31.6684 34.7617 32.0317 34.9998 32.4014 35.2249C32.7711 35.45 33.2285 35.7044 33.6501 35.9197C34.8171 36.5053 36.0395 36.9719 37.2989 37.3126C37.0254 37.1032 36.7665 36.8755 36.5237 36.6308C35.3023 35.4063 34.5451 33.7909 34.3831 32.0641V31.9434V31.9238C34.2557 30.6762 33.8194 29.4805 33.114 28.4463C32.4085 27.412 31.4566 26.5721 30.3451 26.0033C29.8738 25.7613 29.3779 25.571 28.8661 25.4358C28.4612 25.311 28.0497 25.2086 27.6336 25.1291C27.1442 25.0326 26.6491 24.9683 26.1514 24.9367C26.4195 25.0072 26.6837 25.0921 26.9428 25.1911C27.1439 25.2694 27.345 25.3575 27.5396 25.4553C29.1866 26.2661 30.4779 27.6601 31.1657 29.3697C30.9328 29.0452 30.6747 28.7398 30.3937 28.4563C29.5271 27.5866 28.4595 26.9466 27.2866 26.5938V26.597ZM0 22.2293C0.339728 22.1834 0.682134 22.1605 1.02491 22.1608C2.74914 22.1579 4.42035 22.7601 5.75052 23.8635C5.77827 23.8902 5.8075 23.9152 5.83809 23.9385C6.80251 24.7297 7.94845 25.2657 9.17151 25.4976C10.3946 25.7295 11.6559 25.6499 12.8406 25.2661C13.3468 25.1017 13.8339 24.883 14.2936 24.6137C14.6666 24.4115 15.0298 24.193 15.3801 23.9614C15.7926 23.6788 16.188 23.3716 16.564 23.0415C16.3243 23.1816 16.0774 23.309 15.8245 23.4231C15.6266 23.5112 15.4223 23.5928 15.2147 23.6645C13.4885 24.256 11.6066 24.191 9.92475 23.4818C10.3174 23.5448 10.7143 23.5764 11.1118 23.5764C12.3338 23.5779 13.5372 23.2754 14.6147 22.6957C15.3316 22.3131 15.9822 21.8163 16.5413 21.2246C16.3434 21.055 16.1423 20.8984 15.9347 20.7385C13.9054 19.2121 11.4436 18.3788 8.90957 18.3606C9.89056 18.7102 10.8209 19.1896 11.6762 19.786C10.9845 19.7128 10.2895 19.6758 9.59393 19.6751C8.45653 19.6755 7.32134 19.7759 6.20135 19.9752C5.77322 20.0503 5.34834 20.1416 4.9267 20.246C4.50506 20.3504 4.00558 20.4939 3.55475 20.6407C2.31939 21.0477 1.12835 21.58 0 22.2293H0ZM27.6563 20.5754C27.8542 20.4874 28.0585 20.4058 28.2661 20.3341C30.0014 19.7391 31.8937 19.8076 33.582 20.5265C33.1894 20.4635 32.7925 20.4318 32.3949 20.4319C31.1716 20.4355 29.9681 20.7436 28.8921 21.329C28.1809 21.7131 27.5359 22.2098 26.9817 22.8001C27.1796 22.9697 27.3806 23.1263 27.5882 23.2861C29.6131 24.8093 32.0687 25.6424 34.5972 25.6641C33.6162 25.3145 32.6858 24.8351 31.8306 24.2386C32.5223 24.3119 33.2173 24.3489 33.9128 24.3495C35.0484 24.3445 36.1814 24.2397 37.2989 24.0364C37.7303 23.9581 38.1519 23.8668 38.5736 23.7624C38.9952 23.658 39.4947 23.5145 39.9455 23.3677C41.185 22.9606 42.3804 22.4284 43.5132 21.7791C43.1736 21.8261 42.8312 21.85 42.4883 21.8509C40.7637 21.8528 39.0924 21.2494 37.7627 20.1449C37.7339 20.1181 37.7036 20.0931 37.6719 20.0698C36.7064 19.2698 35.5564 18.7269 34.3277 18.4909C33.0989 18.2549 31.8309 18.3335 30.6402 18.7194C30.1354 18.8847 29.6494 19.1034 29.1904 19.3718C28.8175 19.574 28.4542 19.7926 28.1039 20.0242C27.691 20.311 27.2957 20.6225 26.9201 20.9571C27.1587 20.8171 27.4045 20.6897 27.6563 20.5754ZM19.5479 32.1391C19.475 32.8348 19.4382 33.5338 19.4376 34.2333C19.4383 35.375 19.5381 36.5145 19.736 37.6388C19.8106 38.0726 19.9014 38.4966 20.0052 38.9207C20.109 39.3448 20.2517 39.8471 20.3976 40.3005C20.8024 41.5471 21.3316 42.7493 21.9772 43.8887C21.9316 43.547 21.9088 43.2026 21.9091 42.8579C21.9062 41.1238 22.505 39.443 23.6021 38.1052C23.6287 38.0763 23.6536 38.0458 23.6767 38.0139C24.4634 37.0439 24.9963 35.8914 25.2269 34.6614C25.4575 33.4313 25.3783 32.1628 24.9968 30.9713C24.8333 30.4622 24.6158 29.9723 24.3481 29.51C24.147 29.1348 23.9297 28.7695 23.6994 28.4172C23.4224 27.9936 23.1202 27.5873 22.7945 27.2005C22.9338 27.4416 23.0605 27.6898 23.174 27.9442C23.2615 28.1432 23.3426 28.3487 23.414 28.5575C24.0056 30.3027 23.9375 32.2059 23.2226 33.9038C23.2853 33.509 23.3168 33.1098 23.3167 32.7099C23.3182 31.481 23.0173 30.2707 22.441 29.187C22.0591 28.4718 21.5651 27.8231 20.9782 27.2657C20.8095 27.4647 20.6539 27.6669 20.4949 27.8757C18.9804 29.9122 18.152 32.3818 18.1305 34.9248C18.4779 33.9371 18.9545 33.0002 19.5479 32.1391ZM21.5296 0.126221C21.5763 0.467821 21.6001 0.812188 21.6009 1.157C21.6028 2.89151 21.0029 4.57234 19.9046 5.90967C19.878 5.93864 19.8531 5.96913 19.83 6.00101C19.0357 6.97131 18.4964 8.12678 18.2618 9.36131C18.0272 10.5958 18.1047 11.8699 18.4873 13.0664C18.6508 13.5755 18.8683 14.0655 19.136 14.5278C19.3371 14.9029 19.5544 15.2682 19.7846 15.6205C20.0656 16.0354 20.371 16.433 20.6993 16.8111C20.56 16.5701 20.4333 16.3218 20.3198 16.0674C20.2322 15.8684 20.1511 15.6629 20.0798 15.4542C19.4882 13.7089 19.5563 11.8057 20.2711 10.1078C20.2086 10.5027 20.1771 10.9019 20.1771 11.3017C20.1846 12.5332 20.4955 13.7436 21.082 14.8246C21.4575 15.5445 21.946 16.1987 22.5285 16.7622C22.6972 16.5632 22.8529 16.361 23.0118 16.1522C24.5263 14.1158 25.3547 11.6461 25.3762 9.10313C25.0273 10.0841 24.5507 11.0142 23.9589 11.8693C24.0317 11.1736 24.0685 10.4746 24.0691 9.7751C24.0699 8.63128 23.9711 7.48959 23.774 6.36309C23.6962 5.92816 23.6053 5.50084 23.5016 5.08114C23.388 4.61468 23.2551 4.15474 23.1091 3.70133C22.7044 2.45889 22.1751 1.26103 21.5296 0.126221V0.126221Z" fill="url(#paint0_linear_1_2361)"/>
<defs>
<linearGradient id="paint0_linear_1_2361" x1="21.7534" y1="0.465464" x2="21.7534" y2="44.2214" gradientUnits="userSpaceOnUse">
<stop stop-color="#EE4224"/>
<stop offset="0.05" stop-color="#E94925"/>
<stop offset="0.29" stop-color="#D36528"/>
<stop offset="0.53" stop-color="#C47A2B"/>
<stop offset="0.77" stop-color="#BB862C"/>
<stop offset="1" stop-color="#B88A2D"/>
</linearGradient>
</defs>
</svg>
