<svg width="68" height="70" viewBox="0 0 68 70" fill="none" xmlns="http://www.w3.org/2000/svg">
<g filter="url(#filter0_d_1_996)">
<path d="M31.4626 38.019C32.1133 38.4526 32.1133 40.4038 32.5471 41.0542C32.5471 41.271 32.7641 41.4878 32.7641 41.7046C34.0655 41.7046 35.15 41.7046 36.2346 41.7046C37.7529 41.9214 39.2713 42.5718 40.3558 43.439C46.4292 39.103 54.2378 38.2358 61.1788 41.0542C62.2634 41.4878 63.131 42.355 63.3479 43.439C63.5648 44.523 63.5648 45.8239 62.9141 46.6911C61.3957 48.8591 59.4436 50.5935 57.2745 51.8943H57.4914C58.359 52.3279 59.0098 53.1951 59.0098 54.2791C59.2267 55.3631 58.7929 56.4472 57.9252 57.0976C55.5393 59.2656 52.2857 60.5664 49.0321 61H47.5137C44.8995 61 41.2685 60.2908 39 59M31.4626 38.019C31.6795 37.5854 31.4626 38.4526 31.4626 38.019ZM31.4626 38.019C32.981 37.3686 34.2824 36.0677 34.7162 34.3333C34.9331 34.1165 34.9331 33.6829 34.9331 33.2493C37.536 33.2493 40.1389 32.1653 42.308 30.6477C46.863 26.9621 48.1644 20.6748 45.3446 15.4715C43.8263 12.6531 41.8741 10.0515 39.4882 7.66667C37.3191 5.49864 34.7162 3.54743 32.1133 1.81301C30.3781 0.728997 28.209 0.728997 26.4738 1.81301L13.8932 9.61789C12.5917 10.4851 11.7241 11.7859 11.5072 13.3035C11.5072 13.9539 11.5072 14.8211 11.7241 15.4715L5.86763 24.1436C5 25.4444 4.78309 27.1789 5.21691 28.6965L5.43381 29.1301C5 31.9485 5 34.9837 5.65072 37.8022C5.65072 38.019 5.86763 38.2358 5.86763 38.4526C6.51835 41.271 8.47051 43.6558 11.0734 44.9566C11.5072 45.3902 12.1579 45.607 12.5917 45.607C13.4594 47.9919 15.1946 50.3767 17.1468 51.8943L17.5806 52.3279C18.882 53.1951 20.1835 53.6287 21.7018 53.6287C21.9187 53.6287 22.1356 53.6287 22.5694 53.6287C22.7863 53.6287 22.5694 53.8455 22.5694 53.8455C24.0878 55.7967 26.0399 57.5312 28.209 58.6152C29.2935 59.2656 30.3781 59.6992 31.6795 60.1328C32.5472 60.3496 33.6317 60.5664 34.4993 60.5664C36.0177 60.5664 37.7529 60.1328 39.0544 59.2656" stroke="#B68C2D" stroke-miterlimit="10"/>
<path d="M11.7246 15.6882C14.5444 18.7235 18.4487 22.1923 23.0038 25.6611C27.3419 28.9132 31.68 31.5148 35.1505 33.2492" stroke="#B68C2D" stroke-miterlimit="10"/>
<path d="M5.43359 29.1301C8.68719 31.0813 12.8084 33.0326 17.7973 34.767C23.003 36.5014 27.775 37.3686 31.4624 38.019" stroke="#B68C2D" stroke-miterlimit="10"/>
<path d="M12.5918 45.607C15.6285 45.3902 19.5328 45.1734 23.4371 44.3062C26.9076 43.6558 30.1612 42.5718 32.7641 41.7046" stroke="#B68C2D" stroke-miterlimit="10"/>
<path d="M22.5693 54.0623C25.606 52.9783 29.2934 51.2439 33.1978 48.6422C36.0175 46.9078 38.4035 44.9566 40.3557 43.2222" stroke="#B68C2D" stroke-miterlimit="10"/>
<path d="M38.5 59.5C39.3676 58.1992 41.8741 55.5799 42.0911 51.8942C42.308 47.775 41.0065 44.523 40.3558 43.439" stroke="#B68C2D" stroke-miterlimit="10"/>
<path d="M57.2743 51.8943C55.9728 52.5447 53.1531 53.8455 49.4656 53.8455C45.9951 53.8455 43.3923 52.5447 42.0908 51.8943" stroke="#B68C2D" stroke-miterlimit="10"/>
</g>
<defs>
<filter id="filter0_d_1_996" x="0.5" y="0.5" width="67.4775" height="69" filterUnits="userSpaceOnUse" color-interpolation-filters="sRGB">
<feFlood flood-opacity="0" result="BackgroundImageFix"/>
<feColorMatrix in="SourceAlpha" type="matrix" values="0 0 0 0 0 0 0 0 0 0 0 0 0 0 0 0 0 0 127 0" result="hardAlpha"/>
<feOffset dy="4"/>
<feGaussianBlur stdDeviation="2"/>
<feComposite in2="hardAlpha" operator="out"/>
<feColorMatrix type="matrix" values="0 0 0 0 0 0 0 0 0 0 0 0 0 0 0 0 0 0 0.25 0"/>
<feBlend mode="normal" in2="BackgroundImageFix" result="effect1_dropShadow_1_996"/>
<feBlend mode="normal" in="SourceGraphic" in2="effect1_dropShadow_1_996" result="shape"/>
</filter>
</defs>
</svg>
