<svg width="16" height="13" viewBox="0 0 16 13" fill="none" xmlns="http://www.w3.org/2000/svg">
<path d="M14.1064 3.19778C14.1168 3.33778 14.1168 3.47698 14.1168 3.61618C14.1168 7.87618 10.8744 12.785 4.9488 12.785C3.1232 12.785 1.4272 12.2562 0 11.3378C0.2592 11.3674 0.5088 11.3778 0.7784 11.3778C2.22879 11.3813 3.63812 10.8963 4.7792 10.001C4.10674 9.98881 3.45486 9.76695 2.91459 9.36637C2.37432 8.96579 1.97263 8.4065 1.7656 7.76658C1.9648 7.79618 2.1648 7.81618 2.3744 7.81618C2.6632 7.81618 2.9536 7.77618 3.2232 7.70658C2.49341 7.55923 1.83718 7.16366 1.36609 6.58713C0.895011 6.0106 0.638154 5.2887 0.6392 4.54418V4.50418C1.0688 4.74338 1.5672 4.89298 2.0952 4.91298C1.65287 4.61905 1.29018 4.2202 1.03947 3.75201C0.788768 3.28383 0.65785 2.76087 0.6584 2.22978C0.6584 1.63138 0.8176 1.08258 1.0968 0.604181C1.90651 1.6002 2.9164 2.41503 4.06107 2.99591C5.20574 3.57679 6.45965 3.91075 7.7416 3.97618C7.692 3.73618 7.6616 3.48738 7.6616 3.23778C7.66139 2.81455 7.7446 2.39543 7.90646 2.00437C8.06833 1.61332 8.30568 1.258 8.60495 0.958731C8.90422 0.659462 9.25954 0.42211 9.65059 0.260244C10.0416 0.0983774 10.4608 0.015171 10.884 0.0153813C11.812 0.0153813 12.6496 0.404181 13.2384 1.03298C13.9598 0.893475 14.6516 0.630119 15.2832 0.254581C15.0427 0.999234 14.539 1.63066 13.8664 2.03058C14.5062 1.9576 15.1315 1.78934 15.7216 1.53138C15.2809 2.17386 14.7348 2.73726 14.1064 3.19778Z" fill="white"/>
</svg>
