<svg width="58" height="60" viewBox="0 0 58 60" fill="none" xmlns="http://www.w3.org/2000/svg">
<g clip-path="url(#clip0_1_1818)">
<path fill-rule="evenodd" clip-rule="evenodd" d="M43.7349 34.6698C43.7845 34.6042 43.8337 34.5392 43.8825 34.4747L44.68 35.0781C44.6405 35.1303 44.6007 35.1829 44.5607 35.2358C40.8954 40.0792 35.0912 47.7492 34.2482 58.197C34.2408 58.8098 33.9206 59.2696 33.488 59.5575C33.478 59.5642 33.4679 59.571 33.4576 59.5778C33.1526 59.7814 32.719 60.0707 32.1361 60.0707H25.4725C25.2158 60.0707 24.9632 60.0387 24.7155 59.9435C24.479 59.8527 24.2705 59.7134 24.0772 59.5273C23.8343 59.3505 23.6889 59.1126 23.5945 58.9083C23.5171 58.7408 23.4578 58.5562 23.4145 58.4213C23.4041 58.3889 23.3946 58.3594 23.386 58.3336L23.3659 58.2735L23.3615 58.2103C22.9932 52.9556 20.458 47.1844 17.9813 42.6922C16.7471 40.4537 15.5359 38.5476 14.6334 37.2015C14.1823 36.5287 13.8087 35.9962 13.5483 35.6327C13.4181 35.4509 13.3163 35.3114 13.2473 35.2178C13.2128 35.1709 13.1865 35.1355 13.169 35.112L13.1494 35.0858L13.1446 35.0795L13.1436 35.078L13.5423 34.7764C13.9413 34.4751 13.9414 34.4752 13.9415 34.4754L13.9435 34.478L13.9491 34.4855L13.9706 34.5141C13.9893 34.5392 14.0168 34.5762 14.0525 34.6248C14.124 34.7219 14.2285 34.8649 14.3613 35.0505C14.627 35.4215 15.0066 35.9624 15.464 36.6447C16.3786 38.0088 17.6058 39.9399 18.857 42.2094C21.3417 46.7161 23.955 52.6164 24.3546 58.0777C24.3625 58.1019 24.37 58.1252 24.3773 58.1479C24.4185 58.2754 24.453 58.3823 24.5022 58.4888C24.5636 58.6215 24.6215 58.6897 24.6748 58.7251L24.716 58.7526L24.751 58.7875C24.8709 58.9073 24.9747 58.9718 25.0741 59.01C25.1757 59.049 25.2992 59.0707 25.4725 59.0707H32.1361C32.3935 59.0707 32.5953 58.9505 32.9338 58.7251C33.1411 58.5872 33.2483 58.4104 33.2483 58.1753V58.1553L33.2499 58.1354C34.1111 47.3854 40.0709 39.5109 43.7349 34.6698Z" fill="#B68C2D"/>
<path fill-rule="evenodd" clip-rule="evenodd" d="M29.9165 42.6072L30.024 30.8004L31.024 30.8095L30.9165 42.6138C30.9169 42.8179 30.984 43.0443 31.1548 43.3002C31.2314 43.415 31.294 43.4719 31.3519 43.5104C31.4164 43.5533 31.4998 43.5903 31.6492 43.64C31.8691 43.7132 32.0808 43.7132 32.3007 43.64C32.4178 43.601 32.5355 43.5419 32.6289 43.4766C32.675 43.4443 32.71 43.4142 32.7343 43.3891C32.7568 43.3659 32.7641 43.3533 32.7642 43.3533L32.7875 43.3068L41.7411 32.1028L42.5223 32.7271L33.6285 43.8562C33.5197 44.0429 33.354 44.1898 33.2019 44.2962C33.0266 44.4187 32.8218 44.5205 32.6165 44.5888C32.1916 44.7303 31.7583 44.7303 31.3334 44.5888C31.1603 44.5312 30.9751 44.4609 30.7977 44.3428C30.6138 44.2203 30.4614 44.0626 30.3231 43.8554C30.0645 43.4681 29.9165 43.0511 29.9165 42.6118L29.9165 42.6072Z" fill="#B68C2D"/>
<path fill-rule="evenodd" clip-rule="evenodd" d="M27.692 42.7215L27.7995 30.9169L26.7995 30.9078L26.692 42.7146L26.692 42.7192C26.692 42.8889 26.6712 42.9899 26.6416 43.0714C26.6122 43.152 26.5662 43.2363 26.4807 43.3668C26.2773 43.5685 26.1438 43.686 25.9593 43.7475C25.7505 43.817 25.5492 43.8205 25.3412 43.758C25.1768 43.6711 24.944 43.5138 24.7832 43.3627L16.6439 31.2771L15.8145 31.8357L24.0099 44.0047L24.0442 44.039C24.3035 44.2979 24.6722 44.5422 24.9265 44.6692L24.9583 44.6851L24.992 44.6963C25.4169 44.8377 25.8502 44.8377 26.2751 44.6963C26.7107 44.5513 26.9981 44.2638 27.203 44.0589C27.2097 44.0521 27.2163 44.0455 27.2229 44.039L27.2579 44.004L27.2854 43.9628C27.3973 43.7952 27.506 43.62 27.5812 43.4135C27.6588 43.2004 27.6918 42.9801 27.692 42.7215Z" fill="#B68C2D"/>
<path fill-rule="evenodd" clip-rule="evenodd" d="M28.912 1.03662C26.6561 1.03662 24.5007 1.75273 22.6483 3.08884C20.7989 4.42268 19.3516 6.38011 18.5238 8.55025L18.5149 8.57357L18.4974 8.60857C18.3907 8.82177 18.2527 9.09756 17.98 9.36984C17.8169 9.5328 17.6272 9.64177 17.4739 9.7183C17.396 9.75722 17.3198 9.79138 17.2563 9.81972L17.2509 9.82217C17.1862 9.85105 17.1385 9.87234 17.0977 9.89272C16.9067 9.98808 16.6925 10.0259 16.4982 10.0259C16.3038 10.0259 16.0896 9.98808 15.8986 9.89272L15.8859 9.88637C15.6725 9.77985 15.3964 9.64208 15.1238 9.36984C14.3681 8.6151 13.3179 8.22803 12.2528 8.22803C11.1254 8.22803 9.95637 8.79598 9.0593 9.69184C8.88355 9.86735 8.68612 10.187 8.48917 10.6352C8.29663 11.0734 8.12124 11.5954 7.97288 12.1396C7.67744 13.2232 7.50476 14.3356 7.50057 14.9763L7.50965 14.9824C7.50663 14.9869 7.50357 14.9915 7.50049 14.996L7.50049 15H7.4978C7.25739 15.3546 6.86191 15.7741 6.39189 15.9305C4.89248 16.4297 3.47847 17.5358 2.5702 18.9468L2.56358 18.9571L2.55646 18.967C1.54699 20.3784 1.0376 22.0996 1.0376 23.8282C1.0376 27.9775 1.70656 30.9716 3.0094 32.9296C4.28702 34.8496 6.21571 35.8342 8.92566 35.8864C10.214 35.8854 11.4185 35.4902 12.5466 34.8763C13.2444 34.4775 13.8515 33.9752 14.4732 33.3549C15.9915 31.7345 16.8043 29.6067 16.8043 27.3703C16.8043 26.9606 16.9351 26.4323 17.2109 26.0193L17.2384 25.9781L17.2734 25.9431C17.6329 25.5841 18.0194 25.3172 18.4361 25.1785C18.8585 25.0379 19.4594 25.0202 19.9459 25.344C20.3526 25.6148 20.6157 26.0094 20.8179 26.3126C20.8243 26.3223 20.8307 26.3318 20.837 26.3413L20.8612 26.3775L20.8787 26.4173C21.9514 28.852 25.0476 30.5196 28.912 30.5196C32.6594 30.5196 35.7723 28.857 36.9522 26.4023L36.9674 26.3706L36.9869 26.3413C37.2295 25.978 37.4736 25.7342 37.6875 25.5206L37.7517 25.4565L37.8243 25.4202C38.086 25.2895 38.4857 25.1529 38.9075 25.1529H39.3989L39.4585 25.1678C39.9904 25.3006 40.4266 25.5789 40.7206 26.0193C40.9886 26.4208 41.1272 26.8389 41.1272 27.3703C41.1272 29.6067 41.9399 31.7345 43.4582 33.3549C44.9897 34.8818 46.9072 35.779 49.0105 35.779C50.9233 35.779 52.8857 34.43 54.3709 32.1922C55.8447 29.9715 56.7818 26.9636 56.6794 23.8512C56.5756 22.107 56.0625 20.3745 55.1529 18.957C54.1349 17.5377 52.8172 16.5277 51.297 15.9204L51.2487 15.9011L51.1766 15.8531C50.873 15.6513 50.478 15.3886 50.2068 14.9824L50.1696 14.9266L50.1435 14.8485C50.0369 14.5291 49.9077 14.1423 49.9077 13.6314V13.3094C49.9077 12.6022 49.8061 11.9055 49.611 11.321L49.6076 11.3107L49.6046 11.3003C49.4209 10.6584 49.0557 10.1942 48.6203 9.65065C48.2604 9.20145 47.804 8.91879 47.175 8.60471C46.6147 8.32497 46.0502 8.22803 45.4637 8.22803C44.419 8.22803 43.3886 8.60041 42.6364 9.32687C42.509 9.5218 42.324 9.6393 42.1998 9.70818C42.1218 9.75146 42.0435 9.78819 41.9793 9.81765C41.9613 9.82592 41.9448 9.83342 41.9296 9.84038C41.885 9.8607 41.8506 9.87637 41.8178 9.89272C41.6269 9.98808 41.4127 10.0259 41.2183 10.0259C41.0239 10.0259 40.8097 9.98808 40.6188 9.89272L40.6061 9.88638C40.4055 9.78627 40.1495 9.65854 39.8931 9.41753C39.6943 9.2903 39.5749 9.10285 39.505 8.97737C39.4617 8.89943 39.4249 8.82125 39.3954 8.75712C39.3871 8.73912 39.3796 8.72266 39.3726 8.7074C39.3523 8.66287 39.3366 8.62856 39.3202 8.59589L39.3074 8.57016L39.2975 8.54312C38.4727 6.27806 37.0309 4.42692 35.1757 3.08884C33.3232 1.75273 31.1679 1.03662 28.912 1.03662ZM6.51255 14.6431C6.55961 13.8894 6.74144 12.8545 7.0081 11.8765C7.16521 11.3003 7.35573 10.7289 7.57366 10.2329C7.78718 9.74697 8.04475 9.29176 8.35266 8.98426C9.39021 7.9481 10.8007 7.22803 12.2528 7.22803C13.5522 7.22803 14.8666 7.69964 15.8305 8.66226C15.9823 8.81392 16.1306 8.8908 16.3454 8.99805C16.3694 9.01002 16.4238 9.02589 16.4982 9.02589C16.5725 9.02589 16.627 9.01002 16.651 8.99805C16.7118 8.96768 16.778 8.93812 16.8353 8.91254L16.8484 8.9067C16.9126 8.87801 16.9708 8.8518 17.0272 8.82363C17.1426 8.766 17.2216 8.71397 17.2734 8.66226C17.42 8.51587 17.4968 8.37289 17.5985 8.17018C18.4918 5.84162 20.0502 3.72973 22.0633 2.27779C24.08 0.823192 26.4388 0.0366211 28.912 0.0366211C31.3852 0.0366211 33.7439 0.823192 35.7607 2.27779C37.7677 3.72533 39.3313 5.72928 40.2278 8.17529C40.2486 8.21819 40.2694 8.2637 40.2874 8.30329C40.2932 8.31594 40.2987 8.32799 40.3039 8.33915C40.3314 8.39912 40.3551 8.44841 40.3789 8.49122C40.4095 8.54615 40.429 8.56909 40.4349 8.57587L40.4932 8.60495L40.5506 8.66226C40.7024 8.81392 40.8507 8.8908 41.0655 8.99805C41.0895 9.01002 41.144 9.02589 41.2183 9.02589C41.2926 9.02589 41.3471 9.01002 41.3711 8.99805C41.4214 8.97293 41.4783 8.94705 41.5264 8.92514C41.5391 8.91938 41.5511 8.91389 41.5623 8.90876C41.6223 8.88121 41.6717 8.85756 41.7146 8.83375C41.7696 8.80323 41.7927 8.78369 41.7995 8.77777L41.8286 8.71962L41.886 8.66226C42.8499 7.69964 44.1643 7.22803 45.4637 7.22803C46.167 7.22803 46.8922 7.34577 47.6217 7.71004C48.2824 8.03996 48.9008 8.40131 49.4007 9.02545L49.4192 9.0485C49.8377 9.57078 50.3193 10.1718 50.563 11.0146C50.7955 11.7157 50.9077 12.5178 50.9077 13.3094V13.6314C50.9077 13.9466 50.978 14.1872 51.0738 14.4769C51.2174 14.6677 51.4268 14.8175 51.7171 15.0115C53.397 15.693 54.8536 16.8197 55.9734 18.3853L55.9805 18.3952L55.9871 18.4055C57.007 19.9898 57.5662 21.9 57.678 23.7988L57.6788 23.8115C57.7898 27.137 56.7924 30.352 55.2041 32.7451C53.6261 35.1227 51.3969 36.779 49.0105 36.779C46.6024 36.779 44.4378 35.7464 42.7459 34.0568L42.7402 34.0511L42.7346 34.0452C41.0321 32.2316 40.1272 29.8539 40.1272 27.3703C40.1272 27.0429 40.0507 26.817 39.8889 26.5745C39.7608 26.3826 39.5681 26.2375 39.272 26.1529H38.9075C38.713 26.1529 38.5018 26.2122 38.3394 26.283C38.158 26.4651 37.9978 26.6336 37.8373 26.8689C36.4266 29.7611 32.8878 31.5196 28.912 31.5196C24.842 31.5196 21.2886 29.7689 19.9817 26.8613C19.7685 26.5429 19.609 26.3211 19.3917 26.1764C19.2333 26.071 18.9744 26.0533 18.7519 26.1273C18.5339 26.1999 18.2882 26.3515 18.0177 26.6137C17.8793 26.8417 17.8043 27.1488 17.8043 27.3703C17.8043 29.8539 16.8993 32.2316 15.1968 34.0452L15.1913 34.0511L15.1856 34.0568C14.5209 34.7206 13.8409 35.2891 13.038 35.7473L13.0294 35.7522C11.7957 36.4242 10.4236 36.8864 8.92094 36.8864H8.91152C5.92756 36.8301 3.66608 35.7216 2.17686 33.4836C0.712117 31.2823 0.0375977 28.051 0.0375977 23.8282C0.0375977 21.9114 0.600648 19.9873 1.736 18.3952C2.76258 16.8057 4.35482 15.5547 6.07605 14.9817C6.19752 14.9413 6.35973 14.8175 6.51255 14.6431Z" fill="#B68C2D"/>
</g>
<defs>
<clipPath id="clip0_1_1818">
<rect width="57.931" height="60" fill="white"/>
</clipPath>
</defs>
</svg>
