<svg width="16" height="12" viewBox="0 0 16 12" fill="none" xmlns="http://www.w3.org/2000/svg">
<g clip-path="url(#clip0_110_2056)">
<path d="M15.1771 2.23333C15.0961 1.93282 14.9378 1.65876 14.718 1.43843C14.4982 1.2181 14.2245 1.05919 13.9242 0.977509C12.8106 0.671731 8.35544 0.666753 8.35544 0.666753C8.35544 0.666753 3.90104 0.661776 2.78673 0.954042C2.48659 1.03948 2.21345 1.20064 1.99353 1.42205C1.77362 1.64346 1.61431 1.91768 1.53091 2.2184C1.23722 3.332 1.23438 5.64169 1.23438 5.64169C1.23438 5.64169 1.23153 7.96275 1.52309 9.06497C1.68664 9.6744 2.16664 10.1558 2.77678 10.3201C3.90175 10.6259 8.34478 10.6308 8.34478 10.6308C8.34478 10.6308 12.7999 10.6358 13.9135 10.3443C14.2139 10.2627 14.4879 10.1042 14.7083 9.8843C14.9286 9.66442 15.0878 9.39083 15.17 9.09058C15.4644 7.97769 15.4666 5.66871 15.4666 5.66871C15.4666 5.66871 15.4808 3.34693 15.1771 2.23333ZM6.93038 7.78142L6.93393 3.51475L10.6367 5.65164L6.93038 7.78142Z" fill="white"/>
</g>
<defs>
<clipPath id="clip0_110_2056">
<rect width="14.9334" height="10.6667" fill="white" transform="translate(0.533203 0.666748)"/>
</clipPath>
</defs>
</svg>
